<?xml version="1.0" encoding="utf-8"?>
<!-- Generator: Adobe Illustrator 25.3.1, SVG Export Plug-In . SVG Version: 6.00 Build 0)  -->
<svg version="1.1" id="レイヤー_1" xmlns="http://www.w3.org/2000/svg" xmlns:xlink="http://www.w3.org/1999/xlink" x="0px"
	 y="0px" viewBox="0 0 414.7 86.4" style="enable-background:new 0 0 414.7 86.4;" xml:space="preserve">
<style type="text/css">
	.st0{enable-background:new    ;}
	.st1{display:none;}
	.st2{display:inline;}
</style>
<g id="base">
	<g class="st0">
		<path d="M43.1,35.2c-2.6,3.3-5.3,6.5-8.1,9.6c-2.8,3.1-5.6,5.8-8.4,8.2c-2.8,2.4-5.6,4.3-8.4,5.7c-2.8,1.4-5.4,2.1-8,2.1
			c-1.8,0-3.2-0.2-4.2-0.6c-1-0.4-1.8-0.9-2.4-1.4c-0.6-0.6-0.9-1.1-1.1-1.8c-0.2-0.6-0.3-1.2-0.3-1.6c0-0.9,0.3-1.7,0.8-2.3
			c0.5-0.6,1.3-1,2.2-1c0.9,0,1.5,0.3,2,0.9c0.5,0.6,0.7,1.3,0.7,2.1c0,0.5-0.1,1-0.4,1.4c-0.3,0.5-0.6,0.8-1.1,0.9
			c0.5,0.7,1.1,1.2,2,1.5c0.9,0.2,1.7,0.4,2.6,0.4c2.3,0,4.7-0.7,7.2-2c2.5-1.3,5.1-3.1,7.7-5.2c2.6-2.2,5.2-4.6,7.7-7.4
			s5-5.6,7.4-8.4c1-1.3,2.3-2.9,3.8-4.7c1.5-1.9,3.2-3.9,5.2-6.1c1.9-2.2,4-4.4,6.3-6.7c2.3-2.3,4.7-4.4,7.2-6.4
			c2.6-2,5.2-3.8,8-5.4c2.8-1.6,5.6-2.8,8.5-3.6l0.2,0.3c-1.8,1.7-3.7,3.7-5.7,6.2c-2,2.5-3.9,5.1-5.8,8c-1.9,2.9-3.7,5.9-5.4,9
			c-1.7,3.1-3.2,6.3-4.5,9.4c-1.3,3.1-2.3,6.1-3.1,9c-0.8,2.9-1.2,5.5-1.2,7.9c0,1.7,0.3,3.1,0.8,4.2c0.6,1.1,1.7,1.7,3.4,1.7
			c1,0,2.2-0.4,3.5-1.1c1.3-0.7,2.7-1.7,4.1-3c1.4-1.2,2.9-2.6,4.3-4.1c1.4-1.5,2.8-3,4-4.4c1.3-1.5,2.4-2.9,3.4-4.2
			c1-1.3,1.8-2.4,2.4-3.2l0.6,0.2c-1.8,2.3-3.7,4.7-5.8,7.3c-2,2.6-4.1,4.9-6.2,7c-2.1,2.1-4.2,3.9-6.3,5.2c-2.1,1.4-4.1,2.1-6,2.1
			c-1.3,0-2.4-0.2-3.2-0.7s-1.6-1.1-2.2-1.9c-0.6-0.8-1-1.7-1.3-2.7c-0.3-1-0.4-2.1-0.4-3.2c0-3,0.4-6,1.3-8.8
			c0.9-2.8,1.8-5.6,2.9-8.3H43.1z M54.5,34.2c2.4-5,5.2-9.8,8.5-14.6c3.3-4.7,7.2-9.3,11.6-13.5L74.5,6c-2.8,1.4-5.6,3.1-8.3,5.1
			c-2.7,2-5.3,4.3-7.9,6.7c-2.6,2.5-5.1,5.1-7.5,7.8c-2.4,2.8-4.8,5.6-7.1,8.6H54.5z"/>
		<path d="M106.5,4.7c-4.4,6.9-8.7,13.7-13.1,20.4c-4.4,6.7-8.9,13.3-13.6,19.8l0.2,0.2c1.4-1.5,2.8-3.1,4.1-4.7
			c1.4-1.6,2.8-3,4.2-4.2c1.5-1.3,3-2.3,4.6-3.1c1.6-0.8,3.2-1.2,4.9-1.2c1.8,0,3,0.4,3.8,1.3c0.8,0.9,1.2,1.9,1.2,3.1
			c0,1.3-0.4,2.4-1.2,3.4c-0.8,1-1.7,1.8-2.9,2.6C97.6,43,96.3,43.5,95,44c-1.4,0.4-2.6,0.7-3.7,1v0.2c0.6,0.3,1.2,0.9,1.6,1.8
			c0.5,0.9,0.7,1.8,0.7,2.8c0,0.6-0.1,1.3-0.4,2c-0.2,0.7-0.5,1.4-0.8,2.2c-0.3,0.7-0.6,1.5-0.8,2.2c-0.2,0.7-0.4,1.5-0.4,2.2
			c0,1,0.4,1.5,1.3,1.5c1.4,0,3.3-0.6,5.4-1.9c2.2-1.3,4.5-3.1,7-5.6c1.7-1.7,3.4-3.6,5.2-5.7c1.8-2.1,3.7-4.6,5.7-7.5l0.7,0.5
			c-1,1.4-2.5,3.4-4.4,5.9c-1.9,2.5-4.2,5.1-6.8,7.7c-2.5,2.5-4.9,4.4-7.1,5.7c-2.2,1.3-4.3,1.9-6.2,1.9c-1.6,0-2.8-0.3-3.7-1
			c-0.9-0.7-1.3-1.8-1.3-3.2c0-0.7,0.2-1.6,0.6-2.5c0.4-0.9,0.8-1.8,1.2-2.7c0.4-0.9,0.8-1.7,1.2-2.5c0.4-0.8,0.6-1.4,0.6-1.9
			c0-1-0.5-1.5-1.4-1.5c-0.5,0-1.2,0.1-1.9,0.3c-0.7,0.2-1.5,0.3-2.4,0.3c-0.8,0-1.2-0.2-1.2-0.7c0-0.5,0.4-0.7,1.2-0.7
			c0.3,0,0.7,0,1.1,0.1c0.4,0.1,0.9,0.1,1.5,0.1c1.6,0,3.1-0.2,4.4-0.6c1.4-0.4,2.5-0.9,3.6-1.6c1-0.7,1.8-1.6,2.4-2.6
			c0.6-1,0.8-2.2,0.8-3.4c0-1.1-0.3-1.9-0.8-2.5c-0.5-0.5-1.2-0.8-1.9-0.8c-1,0-2.2,0.4-3.5,1.2c-1.3,0.8-2.8,1.9-4.3,3.4
			c-1.5,1.4-3.1,3-4.6,4.9c-1.6,1.8-3.1,3.8-4.6,5.8c-1.5,2-2.8,4-4.1,6c-1.3,2-2.4,3.9-3.3,5.6h-5.3c5.9-9.2,11.8-18.4,17.7-27.5
			c5.9-9.1,11.8-18.3,17.8-27.6L106.5,4.7z"/>
		<path d="M124.9,32.5c-2.9,4.2-5.4,7.8-7.4,10.6c-2,2.9-3.7,5.3-4.9,7.2c-1.3,1.9-2.2,3.4-2.7,4.6s-0.8,2-0.8,2.7
			c0,1.4,0.6,2.1,1.7,2.1c1.1,0,2.3-0.4,3.7-1.2c1.4-0.8,2.9-1.8,4.4-3c1.5-1.2,3.1-2.6,4.6-4.2c1.5-1.5,3-3.1,4.4-4.6
			c1.4-1.5,2.6-3,3.6-4.4s1.8-2.6,2.3-3.5l0.6,0.4c-0.6,1.1-1.5,2.3-2.6,3.8c-1.1,1.5-2.3,3-3.7,4.6c-1.4,1.6-2.9,3.1-4.4,4.7
			c-1.5,1.5-3.1,2.9-4.7,4.2c-1.6,1.2-3.2,2.2-4.7,3c-1.5,0.7-2.9,1.1-4.2,1.1c-1.4,0-2.5-0.4-3.2-1.2c-0.7-0.8-1-1.7-1-2.6
			c0-1.1,0.3-2.3,0.8-3.6c0.5-1.3,1.3-2.8,2.4-4.6c1.1-1.8,2.6-4,4.4-6.6c1.8-2.6,3.9-5.8,6.4-9.6H124.9z M129.6,17.6
			c0.7,0,1.4,0.3,1.8,0.8s0.7,1.1,0.7,1.9c0,0.7-0.2,1.4-0.7,1.9c-0.5,0.5-1.1,0.8-1.8,0.8c-0.7,0-1.4-0.3-1.8-0.8
			c-0.5-0.5-0.7-1.1-0.7-1.9c0-0.7,0.2-1.4,0.7-1.9S128.8,17.6,129.6,17.6z"/>
		<path d="M160.5,4.7l-28.3,42.1l0.2,0.2c1.1-1.3,2.3-2.9,3.8-4.6c1.4-1.7,3-3.4,4.7-4.9c1.7-1.5,3.5-2.9,5.3-3.9
			c1.9-1.1,3.7-1.6,5.6-1.6c3.3,0,4.9,1.6,4.9,4.9c0,0.9-0.3,1.9-0.9,3c-0.6,1.2-1.4,2.4-2.3,3.7c-0.9,1.3-1.9,2.6-3,4
			c-1.1,1.3-2.1,2.6-3,3.9c-0.9,1.3-1.7,2.4-2.3,3.5c-0.6,1.1-0.9,2-0.9,2.8c0,0.6,0.2,1.1,0.5,1.5c0.3,0.4,0.8,0.6,1.4,0.6
			c1.2,0,2.6-0.4,4-1.2c1.5-0.8,3-1.8,4.6-3c1.6-1.3,3.1-2.7,4.7-4.2c1.5-1.5,3-3.1,4.3-4.6c1.3-1.5,2.5-3,3.5-4.3
			c1-1.4,1.8-2.5,2.3-3.3l0.5,0.2c-0.6,1-1.4,2.2-2.5,3.7c-1.1,1.4-2.3,3-3.6,4.6c-1.4,1.6-2.8,3.2-4.4,4.8c-1.6,1.6-3.1,3-4.7,4.2
			c-1.6,1.3-3.1,2.3-4.7,3c-1.5,0.8-3,1.2-4.3,1.2c-1.4,0-2.5-0.4-3.4-1.3s-1.3-2-1.3-3.5c0-1.1,0.3-2.2,0.9-3.5
			c0.6-1.3,1.4-2.6,2.3-3.9c0.9-1.3,1.9-2.6,3-3.9c1.1-1.3,2.1-2.5,3-3.7c0.9-1.2,1.7-2.3,2.3-3.2c0.6-1,0.9-1.8,0.9-2.5
			c0-0.9-0.2-1.4-0.7-1.8c-0.5-0.3-1.1-0.5-1.8-0.5c-1.3,0-2.8,0.5-4.4,1.5c-1.6,1-3.3,2.3-5,3.9c-1.7,1.6-3.5,3.4-5.2,5.4
			c-1.7,2-3.3,4-4.8,6c-1.5,2-2.9,3.9-4,5.8c-1.1,1.8-2,3.4-2.7,4.6h-5.2c2.9-4.6,5.9-9.3,9-14c3.1-4.7,6.2-9.5,9.2-14.2
			c3.1-4.7,6.1-9.3,9-13.9c2.9-4.6,5.7-8.9,8.3-13.1L160.5,4.7z"/>
		<path d="M178.2,32.5c-2.9,4.2-5.4,7.8-7.4,10.6c-2,2.9-3.7,5.3-4.9,7.2c-1.3,1.9-2.2,3.4-2.7,4.6s-0.8,2-0.8,2.7
			c0,1.4,0.6,2.1,1.7,2.1c1.1,0,2.3-0.4,3.7-1.2c1.4-0.8,2.9-1.8,4.4-3c1.5-1.2,3.1-2.6,4.6-4.2c1.5-1.5,3-3.1,4.4-4.6
			c1.4-1.5,2.6-3,3.6-4.4s1.8-2.6,2.3-3.5l0.6,0.4c-0.6,1.1-1.5,2.3-2.6,3.8c-1.1,1.5-2.3,3-3.7,4.6c-1.4,1.6-2.9,3.1-4.4,4.7
			c-1.5,1.5-3.1,2.9-4.7,4.2c-1.6,1.2-3.2,2.2-4.7,3c-1.5,0.7-2.9,1.1-4.2,1.1c-1.4,0-2.5-0.4-3.2-1.2c-0.7-0.8-1-1.7-1-2.6
			c0-1.1,0.3-2.3,0.8-3.6c0.5-1.3,1.3-2.8,2.4-4.6c1.1-1.8,2.6-4,4.4-6.6c1.8-2.6,3.9-5.8,6.4-9.6H178.2z M182.9,17.6
			c0.7,0,1.4,0.3,1.8,0.8s0.7,1.1,0.7,1.9c0,0.7-0.2,1.4-0.7,1.9c-0.5,0.5-1.1,0.8-1.8,0.8c-0.7,0-1.4-0.3-1.8-0.8
			c-0.5-0.5-0.7-1.1-0.7-1.9c0-0.7,0.2-1.4,0.7-1.9S182.1,17.6,182.9,17.6z"/>
		<path d="M195.2,32.5L185,47.3l0.2,0.2c0.7-0.9,1.7-2,2.8-3.2c1.1-1.2,2.4-2.4,3.8-3.7c1.4-1.3,2.8-2.5,4.3-3.7
			c1.5-1.2,3-2.3,4.4-3.3c0.3-0.5,0.6-1,0.9-1.3c0.3-0.3,1-0.5,1.9-0.5c0.6,0,1.1,0,1.6,0c0.5,0,0.9,0.1,1.4,0.1
			c-0.9,0.9-1.8,2-2.6,3.3c-0.9,1.3-1.3,2.7-1.3,4.3c0,1.2,0.3,2.2,0.9,2.9c0.6,0.7,1.4,1,2.3,1c0.8,0,1.6-0.2,2.4-0.5
			c0.8-0.3,1.5-0.7,2.2-1.2c0.7-0.5,1.4-1,2-1.5s1.2-1,1.7-1.4l0.5,0.3c-0.5,0.5-1.1,1.1-1.8,1.7c-0.7,0.6-1.4,1.2-2.2,1.7
			c-0.8,0.5-1.7,1-2.6,1.3c-0.9,0.3-1.8,0.5-2.8,0.5c-1.7,0-3.1-0.5-4.1-1.6c-1-1-1.6-2.5-1.6-4.4c0-1.3,0.3-2.4,0.9-3.4l-0.2-0.2
			c-2.2,1.5-4.6,3.5-7.2,5.9c-2.6,2.4-5.4,5.3-8.3,8.6c-1.1,1.2-2.2,2.7-3.3,4.6c-1.1,1.9-2.1,3.9-3,5.9h-5.2
			c2.9-4.6,5.8-9.1,8.6-13.7s5.8-9.1,8.9-13.8H195.2z"/>
		<path d="M249.6,39.8c-1.3,1.4-2.7,2.6-4.3,3.4c-1.6,0.9-3.2,1.3-4.7,1.3c-1.5,0-2.8-0.3-3.8-1c-1.1-0.7-1.9-1.5-2.5-2.4h-0.2
			c-0.5,2-1.5,4.2-3,6.5c-1.4,2.3-3.2,4.4-5.2,6.3s-4.2,3.5-6.6,4.8c-2.4,1.3-4.9,1.9-7.4,1.9c-2.3,0-4-0.7-5.2-2
			c-1.2-1.3-1.8-3.1-1.8-5.4c0-1.2,0.3-2.5,0.9-4.1s1.4-3.1,2.4-4.7c1-1.6,2.3-3.1,3.7-4.6c1.4-1.5,2.9-2.9,4.6-4.1
			c1.7-1.2,3.4-2.2,5.2-2.9c1.8-0.7,3.7-1.1,5.6-1.1c2.2,0,3.9,0.6,5.1,1.9c1.2,1.3,1.9,2.9,2,5c0.1,1.2,0.7,2.4,1.7,3.4
			s2.5,1.6,4.3,1.6c1.6,0,3.1-0.4,4.5-1.2c1.4-0.8,2.7-1.8,4-3.1L249.6,39.8z M209.3,55.2c0,1.4,0.3,2.5,0.8,3.3
			c0.5,0.8,1.3,1.2,2.4,1.2c1.4,0,2.9-0.4,4.3-1.2c1.4-0.8,2.8-1.8,4.1-3s2.5-2.7,3.6-4.3c1.1-1.6,2.1-3.3,2.9-5
			c0.8-1.7,1.5-3.4,2-5c0.5-1.6,0.7-3.1,0.7-4.4c0-1.1-0.3-2.1-0.8-2.8c-0.6-0.8-1.4-1.2-2.6-1.2c-1.1,0-2.3,0.4-3.6,1.1
			s-2.6,1.7-3.9,2.8c-1.3,1.2-2.5,2.5-3.7,4.1c-1.2,1.5-2.2,3.1-3.2,4.8c-0.9,1.7-1.7,3.3-2.2,5C209.6,52.3,209.3,53.8,209.3,55.2z"
			/>
		<path d="M291.7,20.5c0.1,0.5,0.1,1,0.1,1.5s0,1,0,1.4c0,2.1-0.5,4.1-1.5,6c-1,1.9-2.4,3.6-4.2,5c-1.8,1.5-3.9,2.6-6.4,3.5
			c-2.5,0.9-5.1,1.3-8.1,1.3c-4.4,0-7.6-1-9.8-3c-2.2-2-3.2-4.5-3.2-7.7c0-2.6,0.9-5.2,2.6-7.9c1.7-2.7,4.6-5.2,8.6-7.4
			s9.3-4.1,15.8-5.6c6.6-1.5,14.7-2.2,24.4-2.2c3,0,5.7,0.1,8.2,0.2c2.5,0.2,4.6,0.2,6.3,0.2c1.5,0,2.8-0.1,3.9-0.2s1.9-0.2,2.7-0.2
			c0.6,0,1.2,0.2,1.8,0.6s0.8,1,0.8,1.7c0,0.5-0.1,0.9-0.4,1.2c-0.3,0.3-0.8,0.5-1.6,0.6c-0.7,0.1-1.7,0.2-3,0.2c-1.3,0-2.8,0-4.8,0
			c-3.7,0-6.8,0.7-9.3,2c-2.5,1.3-4.8,3.3-6.9,5.9c-2.1,2.6-4.3,5.9-6.6,9.9c-2.3,4-5.1,8.6-8.6,13.9c-1.2,1.8-2.7,3.9-4.4,6.2
			c-1.8,2.3-3.9,4.5-6.4,6.5c-2.5,2-5.3,3.7-8.4,5.1c-3.1,1.4-6.7,2.1-10.6,2.1c-1.5,0-3.1-0.2-4.7-0.5c-1.7-0.3-3.2-0.9-4.5-1.7
			c-1.4-0.8-2.5-1.8-3.4-3.1s-1.3-2.9-1.3-4.7c0-1.2,0.3-2.2,1-3c0.7-0.8,1.6-1.2,2.8-1.2c0.9,0,1.6,0.3,2.1,0.8
			c0.6,0.6,0.8,1.3,0.8,2.1c0,0.8-0.3,1.4-0.8,1.9c-0.5,0.5-1.1,0.7-1.8,0.7c-0.4,0-0.7-0.1-1-0.2c0.3,2.6,1.5,4.5,3.6,5.8
			c2.1,1.3,4.8,2,7.9,2c3,0,5.7-0.7,8.2-2c2.5-1.3,4.8-3.1,7-5.3c2.2-2.2,4.2-4.7,6.1-7.5c1.9-2.8,3.8-5.7,5.7-8.7
			c1.9-3,3.8-6,5.7-9s3.9-5.7,6.1-8.1c2.1-2.5,4.4-4.5,6.8-6.3c2.4-1.7,5.1-2.9,8-3.4V10c-2.4,0-5-0.1-7.8-0.3
			c-2.8-0.2-5.4-0.3-7.8-0.3c-6.7,0-12.7,0.5-17.9,1.5c-5.2,1-9.6,2.3-13.2,4.1c-3.6,1.7-6.3,3.8-8.1,6.1c-1.8,2.3-2.8,4.9-2.8,7.6
			c0,3.2,1.1,5.6,3.2,7.2c2.2,1.6,5.2,2.4,9.2,2.4c2.8,0,5.3-0.4,7.6-1.2c2.3-0.8,4.3-1.9,5.9-3.3c1.7-1.4,2.9-2.9,3.9-4.7
			c0.9-1.8,1.4-3.6,1.4-5.4c0-0.5,0-1,0-1.5c0-0.5,0-1.1-0.1-1.6H291.7z"/>
		<path d="M332.6,39.4c-1.6,2.6-3.5,5.1-5.6,7.6c-2.1,2.5-4.4,4.8-6.9,6.8c-2.5,2-5.2,3.7-8.2,4.9c-3,1.3-6.1,1.9-9.5,1.9
			c-1.3,0-2.5-0.2-3.6-0.5s-2.1-0.8-2.9-1.4c-0.8-0.6-1.5-1.5-2-2.4c-0.5-1-0.8-2.1-0.8-3.5c0-1.4,0.5-2.6,1.4-3.8
			c0.9-1.1,2.1-1.7,3.7-1.7c0.8,0,1.5,0.2,2,0.6s0.8,1,0.8,1.8c0,0.7-0.2,1.4-0.6,1.9c-0.4,0.5-0.9,0.8-1.7,0.8
			c-0.6,0-1.1-0.2-1.4-0.5s-0.6-0.7-0.7-1.2c-0.6,0.3-1,0.8-1.2,1.4c-0.2,0.6-0.3,1.2-0.3,1.9c0,1.9,0.7,3.3,2.1,4.2
			c1.4,0.9,3,1.4,4.8,1.4c1.1,0,2.1-0.2,2.9-0.7c0.8-0.5,1.5-1,2.1-1.8c0.6-0.7,1-1.6,1.2-2.5s0.4-1.9,0.4-2.9c0-1-0.2-2.1-0.5-3.2
			c-0.3-1.1-0.7-2.2-1.2-3.2c-0.4-1.1-0.8-2.1-1.2-3.2c-0.4-1-0.6-2-0.6-2.9c0-1.2,0.2-2.2,0.7-3.2c0.5-0.9,1.1-1.7,2-2.4
			c0.8-0.6,1.8-1.1,2.8-1.5c1.1-0.3,2.2-0.5,3.4-0.5c2.1,0,3.9,0.5,5.2,1.4c1.3,0.9,2,2.2,2,3.7c0,1.4-0.5,2.4-1.6,3s-2.2,1-3.5,1
			c0.3-0.6,0.6-1.3,0.8-2.1c0.2-0.8,0.4-1.6,0.4-2.3c0-1.1-0.3-2-1-2.7c-0.7-0.7-1.6-1.1-2.8-1.1c-1.5,0-2.7,0.5-3.4,1.4
			c-0.7,0.9-1.1,2.1-1.1,3.4c0,1.2,0.2,2.3,0.6,3.4c0.4,1.1,0.9,2.1,1.4,3.2c0.5,1.1,0.9,2.2,1.3,3.3c0.4,1.1,0.6,2.4,0.6,3.8
			c0,1-0.2,2-0.7,2.9c-0.5,0.9-1.1,1.8-1.8,2.6c-0.7,0.8-1.6,1.4-2.5,2c-0.9,0.5-1.9,0.9-2.8,1l0.2,0.2c2.9-0.3,5.6-1.2,8.2-2.5
			c2.6-1.4,5.1-3,7.3-5c2.3-1.9,4.4-4.1,6.3-6.4c1.9-2.3,3.6-4.6,5-6.8L332.6,39.4z"/>
		<path d="M341.1,32.5c-2.1,2.8-4.1,5.5-6,8.1c-1.9,2.6-3.6,4.9-5.1,7c-1.5,2.1-2.7,4-3.6,5.6c-0.9,1.6-1.3,2.8-1.3,3.7
			c0,0.9,0.2,1.5,0.6,1.9c0.4,0.4,1,0.6,1.7,0.6c1,0,2.1-0.3,3.3-1c1.2-0.6,2.4-1.5,3.7-2.5c1.3-1,2.5-2.1,3.7-3.4
			c1.2-1.2,2.3-2.4,3.4-3.6s1.9-2.3,2.7-3.3c0.8-1,1.3-1.8,1.7-2.4l7-10.7h5.5c-2.9,3.9-5.3,7.3-7.3,10c-2,2.7-3.6,5.1-4.9,7
			c-1.3,1.9-2.1,3.5-2.7,4.7c-0.5,1.2-0.8,2.3-0.8,3.2c0,0.6,0.2,1.2,0.6,1.6c0.4,0.5,0.9,0.7,1.6,0.7c1.1,0,2.3-0.4,3.7-1.2
			c1.4-0.8,2.8-1.8,4.3-3s3-2.7,4.4-4.2c1.5-1.6,2.9-3.1,4.2-4.7c1.3-1.5,2.5-3,3.6-4.4c1.1-1.4,1.9-2.5,2.5-3.3l0.8,0.2
			c-0.6,0.9-1.5,2.1-2.6,3.5c-1.1,1.4-2.3,2.9-3.6,4.5c-1.3,1.6-2.7,3.2-4.2,4.8c-1.5,1.6-3,3.1-4.6,4.4c-1.6,1.3-3.1,2.3-4.6,3.2
			c-1.5,0.8-2.9,1.2-4.3,1.2c-1.5,0-2.7-0.4-3.6-1.2c-0.9-0.8-1.3-1.9-1.3-3.3c0-1.1,0.2-2.1,0.5-3.1c0.3-1,0.6-1.6,0.8-1.9
			l-0.2-0.2c-1.1,1.3-2.3,2.5-3.5,3.7c-1.2,1.2-2.5,2.2-3.7,3.1c-1.2,0.9-2.5,1.6-3.7,2.1c-1.3,0.5-2.5,0.8-3.7,0.8
			c-1.7,0-2.9-0.4-3.7-1.2c-0.7-0.8-1.1-1.7-1.1-2.8c0-1.3,0.4-2.8,1.1-4.3s1.7-3.3,3-5.2s2.8-4.1,4.6-6.5c1.8-2.4,3.7-5.1,5.9-8.2
			H341.1z"/>
		<path d="M375.5,32.5l-16.9,26.6c2.4-0.4,4.8-1.1,7.2-2.3c2.4-1.1,4.8-2.6,7.1-4.4s4.5-3.9,6.6-6.2c2.1-2.3,4.1-4.9,5.9-7.6
			l0.7,0.3c-1.7,2.5-3.5,4.9-5.6,7.3c-2.1,2.3-4.3,4.5-6.6,6.4c-2.3,1.9-4.9,3.5-7.6,4.8c-2.7,1.3-5.5,2.2-8.4,2.6
			c-1.8,2.8-3.8,5.6-6,8.4c-2.2,2.8-4.7,5.3-7.4,7.6c-2.7,2.2-5.6,4.1-8.8,5.4c-3.2,1.4-6.6,2.1-10.2,2.1c-1.7,0-3.4-0.2-5-0.6
			c-1.6-0.4-3-1-4.2-1.8c-1.2-0.8-2.2-1.8-3-3c-0.7-1.2-1.1-2.6-1.1-4.2c0-1.2,0.3-2.2,0.8-3.2s1.2-1.8,2-2.4
			c0.9-0.7,1.8-1.2,2.8-1.5c1-0.3,2.1-0.5,3.2-0.5c0.4,0,0.8,0,1.2,0.1c0.4,0.1,0.7,0.1,1,0.2v0.7h-0.6c-2.2,0-3.8,0.7-4.9,2
			c-1.1,1.3-1.6,2.8-1.6,4.4c0,3.1,0.9,5.4,2.7,6.8c1.8,1.4,4.2,2,7.2,2c3.3,0,6.4-0.9,9.3-2.6c2.9-1.8,5.6-4,8.1-6.7
			c2.5-2.7,4.9-5.7,7-9c2.2-3.3,4.2-6.4,6.1-9.4l13.8-22.3H375.5z M380.5,17.6c0.7,0,1.4,0.3,1.8,0.8c0.5,0.5,0.7,1.1,0.7,1.9
			c0,0.7-0.2,1.4-0.7,1.9c-0.5,0.5-1.1,0.8-1.8,0.8s-1.4-0.3-1.8-0.8c-0.5-0.5-0.7-1.1-0.7-1.9c0-0.7,0.2-1.4,0.7-1.9
			C379.1,17.9,379.7,17.6,380.5,17.6z"/>
		<path d="M394.4,32.5c-2.9,4.2-5.4,7.8-7.4,10.6c-2,2.9-3.7,5.3-4.9,7.2c-1.3,1.9-2.2,3.4-2.7,4.6c-0.6,1.1-0.8,2-0.8,2.7
			c0,1.4,0.6,2.1,1.7,2.1c1.1,0,2.3-0.4,3.7-1.2c1.4-0.8,2.9-1.8,4.4-3c1.5-1.2,3.1-2.6,4.6-4.2c1.5-1.5,3-3.1,4.4-4.6
			c1.4-1.5,2.6-3,3.6-4.4s1.8-2.6,2.3-3.5l0.6,0.4c-0.6,1.1-1.5,2.3-2.6,3.8c-1.1,1.5-2.3,3-3.7,4.6c-1.4,1.6-2.9,3.1-4.4,4.7
			s-3.1,2.9-4.7,4.2c-1.6,1.2-3.2,2.2-4.7,3c-1.5,0.7-2.9,1.1-4.2,1.1c-1.4,0-2.5-0.4-3.2-1.2c-0.7-0.8-1-1.7-1-2.6
			c0-1.1,0.3-2.3,0.8-3.6c0.5-1.3,1.3-2.8,2.4-4.6c1.1-1.8,2.6-4,4.4-6.6c1.8-2.6,3.9-5.8,6.4-9.6H394.4z M399,17.6
			c0.7,0,1.4,0.3,1.8,0.8c0.5,0.5,0.7,1.1,0.7,1.9c0,0.7-0.2,1.4-0.7,1.9c-0.5,0.5-1.1,0.8-1.8,0.8c-0.7,0-1.4-0.3-1.8-0.8
			c-0.5-0.5-0.7-1.1-0.7-1.9c0-0.7,0.2-1.4,0.7-1.9C397.7,17.9,398.3,17.6,399,17.6z"/>
	</g>
</g>
<g id="mask" class="st1">
	<g class="st2">
		<g>
			<g>
				<path d="M1.6,51.8c-1.8,2.1-2.2,4.7-0.8,7.1c1.1,1.8,3,3,5.1,3.6c3,0.9,6.5,1.1,9.6,0.9c6.6-0.5,13.1-3,17.3-8.4
					c1.3-1.6,2.3-3.3,3.5-5c0.3-0.4,0.5-0.7,0.8-1.1c0.9-1.2-0.3,0.3,0.3-0.4c0.6-0.8,1.3-1.6,1.9-2.3c2.5-2.9,5.2-5.5,7.8-8.3
					c5.2-5.3,10.2-10.8,15.6-15.9c1.5-1.5,3.1-2.9,4.7-4.3c1.7-1.4,2.4-2,4.1-3.2c3.3-2.3,6.8-4.3,10.6-5.9c1.7-0.7,2.6-3.4,2.1-5.1
					c-0.6-1.9-2.3-3.3-4.3-3.3c-3.3,0-7,0.2-9.9,2.1c-3.5,2.2-4.6,5.6-5.2,9.5c-0.1,0.8-0.3,1.5-0.5,2.3c-0.2,0.8-0.1,0.2,0,0
					c-0.2,0.3-0.4,0.7-0.6,1c0.5-0.8-0.1,0.1-0.2,0.3c-0.3,0.3-0.5,0.6-0.8,0.8c-0.6,0.6-1.3,1.2-1.9,1.9c-2.7,2.8-4,6.2-5.4,9.7
					c-1.4,3.7-2.9,7.3-4.3,11c-1.5,3.7-3,7.3-3.2,11.3c-0.4,7.9,6.3,15.5,14.6,13c7.4-2.2,13.8-8.2,17.2-15c1-2.1,0.6-5-1.6-6.2
					c-2-1.1-5-0.6-6.2,1.6c-0.6,1.2-1.2,2.3-2,3.3c-0.1,0.1-0.8,1.1-0.2,0.3c-0.2,0.2-0.3,0.4-0.5,0.6c-0.5,0.6-1,1.2-1.6,1.7
					c-0.5,0.5-0.9,0.9-1.4,1.3c-0.2,0.2-0.4,0.3-0.6,0.5c-1,0.8,0.7-0.5-0.3,0.2c-1.1,0.8-2.3,1.5-3.5,2.1c-0.3,0.1-0.6,0.3-0.9,0.4
					c0.8-0.4-0.1,0-0.3,0.1c-0.3,0.1-0.7,0.2-1,0.3c-1.1,0.4,0.3,0.1-0.3,0.1c-0.1,0-0.1,0-0.2,0c-0.6,0-0.6,0,0.1,0.1
					c0,0-1.2-0.2-0.4-0.1c0.6,0.1-0.2-0.1-0.4-0.2c-0.8-0.4,0.5,0.6-0.2-0.1c-0.2-0.2-0.5-0.5-0.7-0.8c0.1,0.1,0.5,0.7,0.1,0.1
					c-0.2-0.3-0.3-0.6-0.5-0.9c0.1,0.1,0.3,0.9,0,0.1c-0.1-0.2-0.7-2.1-0.3-0.9c-0.2-0.7-0.1-2,0-2.7c-0.1,0.7,0,0,0.1-0.1
					c0.1-0.4,0.2-0.9,0.3-1.3c0.2-0.7,0.4-1.5,0.7-2.2c0.6-1.6,1.2-3.1,1.8-4.6c1.2-3.1,2.5-6.3,3.7-9.4c0.3-0.7,0.6-1.5,0.9-2.2
					c0.1-0.3,0.3-0.7,0.4-1c0.3-0.8-0.5,0.9,0.1-0.3c0.3-0.6,0.6-1.3,1-1.9c0.1-0.2,0.3-0.5,0.4-0.7c0.3-0.4,0.3-0.5,0.1-0.1
					c0.2-0.2,0.3-0.4,0.5-0.6c1.9-2.1,4.2-3.8,5.4-6.4c0.8-1.7,1.1-3.4,1.4-5.2c0.1-0.8,0.3-1.5,0.5-2.2c0.1-0.2,0.4-0.7,0,0
					c0.2-0.3,0.6-0.9,0.1-0.3c0.2-0.2,1-0.8,0.1-0.2c0.3-0.2,0.6-0.4,0.9-0.5c0.9-0.5-0.8,0.2,0.2-0.1c0.3-0.1,0.7-0.2,1-0.3
					c0,0,1.2-0.2,0.5-0.1s0.7,0,0.9-0.1c0.7,0,1.4,0,2.2,0c-0.8-2.8-1.5-5.6-2.3-8.4C65.1,6.3,55.8,16.2,46.4,25.9
					c-4.8,4.9-9.8,9.7-14.2,14.9c-1.1,1.4-2.2,2.8-3.3,4.2c-0.5,0.7-0.9,1.4-1.4,2c-0.2,0.3-0.4,0.6-0.6,0.9c-0.1,0.2-0.8,1.2-0.7,1
					c0.3-0.5-0.6,0.7-0.5,0.6c-0.3,0.3-0.5,0.6-0.8,0.9c-0.2,0.2-1.6,1.4-0.7,0.7c-1.1,0.8-2.2,1.4-3.4,2c1-0.5-0.1,0-0.3,0.1
					c-0.3,0.1-0.7,0.2-1,0.3c-0.7,0.2-1.4,0.4-2.1,0.5c-0.4,0.1-0.7,0.1-1.1,0.2c1.1-0.2-0.1,0-0.3,0c-0.7,0.1-1.5,0.1-2.2,0.1
					s-1.5,0-2.2-0.1c-0.4,0-0.7-0.1-1.1-0.1c1.1,0.1,0,0-0.3-0.1c-0.4-0.1-0.7-0.1-1.1-0.2c-0.1,0-1.4-0.4-0.8-0.1
					C9,54,8,53.6,8,53.5c0.5,0.4,0.5,0.4,0.2,0.1c1.2,1.3,1.1,2.8-0.1,4.5c1.5-1.8,1.9-4.6,0-6.4C6.3,50.3,3.3,49.9,1.6,51.8
					L1.6,51.8z"/>
			</g>
		</g>
		<g>
			<g>
				<path d="M81.1,48c5.7-7.2,10.6-14.7,15.1-22.7c1-1.8,2-3.5,3.1-5.2c0.3-0.5,0.6-1,1-1.4c0.2-0.2,0.3-0.5,0.5-0.7
					c-0.2,0.3-0.2,0.3,0,0.1c0.7-0.8,1.3-1.5,2-2.3c3-3.3,6.2-7.7,4.4-12.5c-0.7-1.8-2.3-3.4-4.3-3.3s-3.7,1.3-4.3,3.3
					C98.3,4.2,98,5,97.7,5.9c0.3-0.8-0.1,0.3-0.3,0.5c-0.2,0.5-0.5,0.9-0.7,1.4c-0.9,1.7-1.9,3.2-3,4.8c-0.3,0.4-0.6,0.8-0.9,1.3
					c0.5-0.6-0.1,0.1-0.3,0.3c-0.7,0.8-1.3,1.6-2,2.4c-1.2,1.5-2.5,2.9-3.8,4.4C81,27.7,76.4,34.8,72.6,42.8
					c-2.2,4.7-4.2,9.5-6.1,14.2c-0.7,1.6,0.3,3.7,1.6,4.7c1.5,1.2,3.3,1.1,5,0.4c6.4-2.8,9.3-9.6,12.5-15.4c0.8-1.4,1.6-2.8,2.5-4.1
					c0.1-0.2,0.2-0.3,0.4-0.5c-0.4,0.5-0.4,0.6-0.1,0.2c0.2-0.2,0.4-0.5,0.6-0.7c0.3-0.3,1.3-1.6,1.7-1.6c-0.5,0.4-0.6,0.4-0.2,0.2
					c0.2-0.1,0.4-0.3,0.6-0.4c0.5-0.3,0.9-0.5,1.4-0.8c-0.8,0.4,0.2-0.1,0.4-0.1c0.5-0.2,1-0.3,1.5-0.4c0.5-0.1,0.5-0.1,0,0
					c0.3,0,0.5,0,0.8-0.1c0.5,0,1.1,0,1.6,0c0.5,0.1,0.5,0,0,0c0.3,0,0.5,0.1,0.8,0.2c0.5,0.1,1,0.3,1.5,0.5
					c-0.9-0.7-1.8-1.4-2.7-2.1c0.2,0.4,0.2,0.4-0.1-0.2c0-0.2,0-0.4,0-0.5c0,0.2,0,0.3,0,0.5c0,0.3,0,0.2,0.1-0.4
					c0,0.2-0.1,0.3-0.1,0.5c-0.1,0.3-0.1,0.2,0.1-0.3c-0.2,0.2-0.8,1-0.1,0.2c-0.2,0.2-1,0.7-0.2,0.2c-0.3,0.2-0.6,0.3-0.9,0.5
					c-0.3,0.1-0.2,0.1,0.2-0.1c-0.2,0.1-0.4,0.1-0.6,0.2c-0.4,0.1-0.8,0.2-1.2,0.3c-0.3,0.1-0.7,0.1-1,0.2c-1.1,0.2,0.6-0.1-0.4,0.1
					c-1.1,0.1-2.2,0.3-3.3,0.4c-1.9,0.3-3.8,0.9-5.5,1.9c-2,1.2-2.9,4.1-1.6,6.2c1.4,2.2,3.9,2.7,6.2,1.6c-1.2,0.6-1.7,0.4-2.6-0.2
					c-0.3-0.5-0.3-0.5,0,0c-0.2-0.5-0.2-0.5,0,0c0.1,0.5,0.3,1,0.4,1.5c0.1,0.3,0.1,0.6,0.2,1c0.1,0.6,0.1,0.6,0.1,0.3
					c0.4,2.6,0.4,5.2,0.3,7.8c-0.1,2.5,2.2,4.4,4.5,4.5c7.3,0.3,14.8-2.9,19.6-8.5c1.5-1.8,1.9-4.6,0-6.4c-1.7-1.5-4.7-1.9-6.4,0
					c-0.5,0.6-1,1.2-1.6,1.7c-0.2,0.2-0.5,0.4-0.7,0.6c-0.3,0.2-0.7,0.5-0.1,0.1c-1.2,0.9-2.5,1.6-3.8,2.2c-0.5,0.2,0.6-0.2-0.2,0.1
					c-0.4,0.1-0.7,0.3-1.1,0.4c-0.7,0.2-1.4,0.4-2.1,0.5c-0.3,0.1-0.6,0.1-0.9,0.2c1.1-0.2-0.2,0-0.3,0c-0.8,0.1-1.5,0-2.3,0
					c1.5,1.5,3,3,4.5,4.5c0.2-4-0.1-8.2-1-12.2c-1.2-4.9-5.9-8.3-10.8-5.8c1.5,2.6,3,5.2,4.5,7.8c-0.1,0,1.2-0.6,0.6-0.3
					c-0.6,0.2,0.7-0.2,0.7-0.2c0.6-0.2,1.1-0.3,1.7-0.4c-0.1,0,1.3-0.2,0.7-0.1c-0.5,0.1,0.4,0,0.5-0.1c1-0.1,2-0.2,3-0.4
					c2.8-0.5,5.8-1.6,7.7-3.8c2.1-2.4,3.2-5.8,2.2-9c-0.7-2.3-2.3-3.5-4.6-4.1c-1.5-0.4-3-0.6-4.5-0.6c-5.3,0-10.4,2.5-13.8,6.6
					c-2.6,3.2-4.4,6.8-6.4,10.5c-0.5,0.9-1,1.8-1.5,2.7c-0.3,0.5-0.6,0.9-0.9,1.4c-0.1,0.2-0.3,0.4-0.4,0.6c-0.5,0.7,0.6-0.7,0,0
					s-1.3,1.4-2,2.1c-0.6,0.6,0.2-0.2,0.2-0.2s-0.6,0.4-0.7,0.5c-0.5,0.3-1,0.6-1.6,0.8c2.2,1.7,4.4,3.4,6.6,5.1
					c0.4-1,0.8-1.9,1.2-2.9c0.2-0.5,0.4-1,0.6-1.4c0.1-0.3,0.2-0.6,0.3-0.8c0-0.1,0.4-0.8,0.2-0.5c-0.2,0.4,0.2-0.4,0.2-0.5
					c0.1-0.2,0.2-0.4,0.3-0.6c0.2-0.5,0.4-1,0.6-1.4c0.5-1,0.9-2,1.4-3.1c1.8-4,3.9-7.9,6.2-11.6c1.1-1.8,2.4-3.6,3.7-5.3
					c-0.5,0.7,0.2-0.3,0.4-0.5c0.3-0.4,0.6-0.7,0.9-1.1c0.6-0.8,1.3-1.5,1.9-2.3c2.7-3.2,5.4-6.3,7.9-9.6c2.7-3.6,4.9-7.6,6.3-12
					c-2.9,0-5.8,0-8.7,0c0.1,0.2,0.2,0.5,0.2,0.7c-0.1-0.6-0.1-0.7,0-0.2c0,1,0.1-0.9-0.1,0.2c-0.1,0.9,0.3-0.5-0.1,0.2
					c-0.3,0.4-0.5,0.9-0.8,1.3c-0.5,0.8,0.4-0.4-0.3,0.3c-0.3,0.3-0.6,0.7-0.9,1c-0.6,0.6-1.2,1.3-1.7,1.9
					c-2.7,3.2-4.8,6.7-6.8,10.4c-2,3.6-4.1,7.1-6.4,10.6c-1.1,1.7-2.2,3.3-3.4,4.9c-0.6,0.9-1.3,1.7-1.9,2.6c-0.8,1-0.7,1-1.6,2
					c-1.5,1.8-1.9,4.6,0,6.4C76.3,49.5,79.5,50,81.1,48L81.1,48z"/>
			</g>
		</g>
		<g>
			<g>
				<path d="M108.9,55.6c7.8-4.2,13.7-11.8,16-20.4c-2.9-0.8-5.8-1.6-8.7-2.4c-0.1,0.3-0.1,0.6-0.2,0.9c-0.2,0.5-0.2,0.6,0,0.1
					c-0.3,0.5-0.5,1-0.9,1.5c-0.1,0.1-0.7,0.9-0.3,0.4s-0.3,0.4-0.3,0.4c-0.4,0.5-0.8,0.9-1.2,1.3c-1.8,1.8-3.6,3.5-5.2,5.5
					c-3.9,5-5.1,11.4-3.9,17.5c0.3,1.4,1.7,2.9,3.1,3.1c6,1,11.4-0.9,16.1-4.6c4-3.1,7.1-7.4,10.3-11.3c3.6-4.4,7.2-8.7,10.7-13.1
					c3.4-4.2,6.9-8.3,10.1-12.6c3.6-5,7.9-11.2,6.6-17.7c-0.6-3-4.2-3.9-6.6-2.7c-4.1,2-5.4,6.5-6.8,10.4c-0.1,0.2-0.2,0.4-0.2,0.6
					c0,0-0.3,0.7-0.1,0.2s-0.1,0.3-0.2,0.4c-0.1,0.2-0.2,0.4-0.3,0.5c-0.5,1-1.1,1.9-1.7,2.8c-0.3,0.5-0.6,0.9-0.9,1.3
					c-0.1,0.1-0.5,0.7,0,0.1c-0.1,0.2-0.3,0.3-0.4,0.5c-0.7,0.9-1.4,1.7-2.1,2.5c-6.3,7.2-12.3,14.8-17.6,22.8
					c-3,4.6-5.3,9.6-5.5,15.1c-0.1,1.8,1.2,3.4,2.8,4.1c1.8,0.8,3.4,0.2,4.9-0.9c3.5-2.7,7-5.7,8.7-9.8c1-2.3,1.3-4.7,2.1-7
					c0-0.1,0.4-0.9,0.1-0.4c-0.2,0.5,0,0,0.1-0.1c0.1-0.2,0.4-1,0.7-1.1c-0.3,0.1-0.5,0.6-0.1,0.2c0.1-0.2,0.3-0.3,0.4-0.5
					c0.2-0.2,0.6-0.8,0.9-0.8c-0.4,0.1-0.6,0.4-0.2,0.1c0.2-0.1,0.4-0.2,0.5-0.4c0.4-0.2,0.7-0.4,1.1-0.6c0.2-0.1,1.2-0.5,0.7-0.3
					c-0.6,0.2,0.1,0,0.2-0.1c0.3-0.1,0.5-0.2,0.8-0.3c1.8-0.6,3.6-0.9,5.4-1.2c0.7-0.1-0.1,0.1-0.2,0l0.5-0.1
					c0.5-0.1,0.9-0.1,1.4-0.2c0.4,0,0.8-0.1,1.2-0.1c0,0,0.7-0.1,0.7,0c-0.3,0-0.5-0.1-0.8-0.2c-0.4-0.2-0.7-0.5-0.9-0.9
					c-0.2-0.3-0.4-0.6-0.6-0.8c0.1,0.4,0.1,0.5,0,0.1c-0.2-0.6,0-0.1,0,0.1c0,0.2-0.1,0.7,0,0.9c-0.2-0.7,0.2-0.9,0-0.4
					c0,0.2-0.1,0.3-0.1,0.5s-0.1,0.3-0.2,0.5c-0.2,0.7,0.4-0.7,0.1-0.2c-0.3,0.6-0.6,1.2-1,1.7c-0.1,0.2-0.2,0.3-0.3,0.5
					c-0.4,0.5,0.1-0.3,0.2-0.2c-0.1,0-0.6,0.8-0.7,0.9c-1,1.2-2.2,2.3-3.3,3.5c-2.4,2.6-4.8,5.5-5.8,9c-0.8,3-0.5,6.4,2.4,8.2
					c2.1,1.3,5,1.6,7.4,1.5c5.1-0.1,10-2.3,13.6-5.9c3.5-3.5,5.5-8,8.1-12.1c0.6-1,1.2-1.9,1.9-2.9c-0.1,0.1-0.5,0.6,0,0
					c0.2-0.2,0.4-0.5,0.6-0.7c0.4-0.4,0.8-0.8,1.2-1.2c0.2-0.2,1.2-1,0.5-0.5c0.4-0.3,0.9-0.6,1.4-0.9c0.2-0.1,0.4-0.2,0.6-0.3
					c0.4-0.3-0.7,0.2,0.1-0.1c0.6-0.2,1.2-0.4,1.8-0.5c-1.5-2.5-2.9-5-4.4-7.5c-3.9,4.1-7.5,8.5-11,13c-3.4,4.4-8.3,9.7-5.5,15.6
					c3.1,6.5,11.2,3.3,15.8,0.6c4.3-2.5,8.1-6,11.4-9.8c3.9-4.4,7.4-9.2,11.8-13.2c1.7-1.5,1.7-4.2,0.4-5.9
					c-1.4-1.8-3.8-2.2-5.8-1.2c-4.9,2.6-8.4,7.4-10.8,12.3c-2.4,5-4.1,10.4-7.4,14.9c2.6,1.5,5.2,3,7.8,4.5c1.9-3,3.7-5.9,5.6-8.9
					c0.9-1.4,1.8-2.9,2.7-4.3c0.2-0.3,0.4-0.6,0.6-0.9c-0.4,0.5,0.1-0.1,0.3-0.2c0.2-0.2,0.7-0.6,0.2-0.2c0.3-0.2,0.7-0.4,1-0.6
					c2.5-1.5,5.2-2.4,7.7-3.9c2.9-1.7,5.7-3.7,8.3-5.9c-2.4-1.8-4.7-3.6-7.1-5.5c-0.7,1.7-1.4,3.4-2.2,5.1c-1,2.3-1.6,4.7-0.3,7
					c2.5,4.3,8.1,3,12.1,2c7-1.7,13.5-5.2,19.8-8.7c1.7-0.9,2.7-3.2,2.1-5.1c-0.6-1.7-2.3-3.5-4.3-3.3c-6.4,0.8-12.2,3.6-16.7,8.2
					c-4.4,4.6-7.2,10.6-7.7,16.9c-0.4,4.6,2.1,8.4,6.8,9.3c3.3,0.6,6.7,0.3,9.8-0.9c6.2-2.5,11.1-7.6,14.3-13.4
					c2-3.5,3.7-7.7,3.3-11.8c-0.5-4.7-3.1-8.4-7.5-10.2c-2.7-1.1-5.8,1.6-5.7,4.3c0.3,6.3,2.1,13.5,8.4,16.4
					c3.4,1.6,7.2,1.8,10.8,0.9c3.5-0.9,6.7-2.8,9.7-4.7c2-1.2,3-4.1,1.6-6.2c-1.5-2.3-3.8-2.6-6.2-1.6c-3.8,1.6-7.7,3.3-11.5,4.9
					c-2.2,0.9-2.8,4.3-1.6,6.2c1.5,2.3,3.8,2.6,6.2,1.6c3.8-1.6,7.7-3.3,11.5-4.9c-1.5-2.6-3-5.2-4.5-7.8c-1.2,0.7-2.3,1.4-3.5,2.1
					c-0.6,0.3-1.2,0.6-1.8,0.9c-0.3,0.1-0.3,0.1,0,0c-0.1,0.1-0.3,0.1-0.4,0.2c-0.3,0.1-0.6,0.2-0.8,0.3c-0.6,0.2-1.2,0.3-1.8,0.5
					c-0.5,0.1,0.7,0-0.2,0c-0.3,0-0.5,0-0.8,0s-0.7,0-1,0s-1-0.2-0.2,0c-0.3-0.1-0.5-0.1-0.8-0.2c-0.1,0-1.1-0.4-0.6-0.2
					s-0.3-0.1-0.3-0.2c-0.3-0.2-0.6-0.3-0.8-0.5c0.3,0.2,0.4,0.4,0.1,0c-0.2-0.2-0.4-0.4-0.6-0.6c-0.4-0.4,0.4,0.6,0.1,0.1
					c-0.1-0.3-0.3-0.5-0.5-0.7c-0.1-0.2-0.2-0.4-0.3-0.6c-0.4-0.7,0.1,0.4,0-0.1c-0.3-1.1-0.7-2.1-0.8-3.2c0-0.1-0.2-0.9-0.1-0.3
					c0.1,0.7,0-0.4-0.1-0.5c-0.1-0.6-0.1-1.2-0.1-1.8c-1.9,1.4-3.8,2.9-5.7,4.3c-1-0.4-0.3,0,0,0.1c0.5,0.2-0.6-0.7,0,0
					c0.1,0.2,0.3,0.3,0.5,0.5c-0.6-0.6-0.2-0.3-0.1-0.1c0.1,0.2,0.6,1.2,0.2,0.2c0.1,0.2,0.2,0.4,0.2,0.7c0.1,0.2,0.1,0.5,0.2,0.7
					c0.3,0.9,0.1-0.7,0,0.2c0,0.3,0,0.7,0,1.1c0,0.7,0.2-0.9,0,0.3c-0.1,0.6-0.3,1.1-0.4,1.7c-0.1,0.3-0.3,0.7-0.4,1
					c-0.3,0.8,0.4-0.9-0.1,0.3c-0.3,0.6-0.6,1.2-0.9,1.8c-0.5,1-1.1,2-1.8,2.9c-0.2,0.3-0.4,0.5-0.6,0.8c-0.1,0.2-0.7,0.8-0.1,0.2
					c-0.4,0.5-0.8,1-1.2,1.5c-0.8,0.8-1.6,1.6-2.5,2.4c-0.9,0.8,0.5-0.3-0.1,0.1c-0.3,0.2-0.5,0.4-0.8,0.5c-0.5,0.3-1,0.7-1.6,1
					c-0.3,0.1-0.5,0.3-0.8,0.4c-0.2,0.1-1,0.4-0.1,0c-0.4,0.2-0.9,0.3-1.4,0.5c-0.3,0.1-2.1,0.4-0.9,0.3c-0.6,0.1-1.2,0.1-1.8,0.1
					c-0.3,0-0.6,0-0.9,0c-0.7,0,1,0.3,0,0c-0.2-0.1-0.5-0.1-0.7-0.2c0.8,0.1,0.4,0.3,0.1,0c0.3,0.3,0.4,0.6,0.7,0.9
					c0,0.1,0,0.1,0.1,0.2c-0.1-0.5-0.1-0.5-0.1,0c-0.1-0.6,0-1.3,0.1-1.9c0.1-0.9,0,0,0,0.1c0-0.3,0.1-0.7,0.2-1
					c0.1-0.5,0.2-0.9,0.3-1.4c0.2-0.6,0.3-1.1,0.5-1.7c0.1-0.2,0.2-0.4,0.2-0.7c-0.4,1,0,0,0.1-0.2c0.5-1,1-1.9,1.5-2.8
					c0.1-0.2,1.2-1.7,0.5-0.8c0.4-0.5,0.7-0.9,1.1-1.3c0.9-1,1.8-1.8,2.8-2.7c-0.1,0.1-0.7,0.5-0.1,0.1c0.3-0.2,0.6-0.4,0.9-0.6
					c0.5-0.3,1-0.6,1.5-0.9c0.6-0.3,1.1-0.6,1.7-0.9c0.6-0.3-1,0.4,0.1,0c0.3-0.1,0.7-0.2,1-0.4c0.6-0.2,1.1-0.3,1.7-0.5
					c0.3-0.1,0.6-0.1,0.9-0.2c0.2,0,1.6-0.2,0.4-0.1c-0.8-2.8-1.5-5.6-2.3-8.4c-2.4,1.3-4.8,2.7-7.3,3.9c-1.2,0.6-2.4,1.2-3.7,1.7
					c-0.3,0.1-0.3,0.1,0,0c-0.1,0.1-0.3,0.1-0.4,0.2c-0.3,0.1-0.6,0.2-0.8,0.3c-0.7,0.3-1.4,0.5-2.1,0.7c-1.3,0.4-2.5,0.8-3.8,1.1
					c-0.6,0.1-1.3,0.3-1.9,0.4c-0.1,0-1.1,0.2-0.3,0.1c-0.3,0-0.6,0.1-0.9,0.1c-0.2,0-0.3,0-0.5,0c-0.3,0-0.2,0,0.1,0
					c0.7,0,1.2,0.5,1.4,1.5c1,0.5,1.3,1.1,1.1,1.9c0,0,0.2-0.6,0.2-0.7c-0.2,0.7,0,0,0.1-0.3c0.6-1.4,1.1-2.7,1.7-4.1
					c0.9-2.1,0.8-4.3-1.2-5.8c-1.9-1.4-4.2-1.1-5.9,0.4c-0.3,0.3-0.7,0.6-1,0.8c-0.1,0.1-0.9,0.7-0.6,0.5c0.4-0.3-0.5,0.4-0.6,0.4
					c-0.4,0.3-0.7,0.5-1.1,0.8c-1.3,0.9-2.6,1.7-3.9,2.4c-2.6,1.4-5.5,2.3-7.9,4.1c-3,2.2-4.8,5.4-6.7,8.5s-3.9,6.2-5.8,9.3
					c-1.3,2-0.5,5,1.6,6.2c2.3,1.2,4.7,0.4,6.2-1.6c3.1-4.3,4.8-9.4,7.1-14.2c1-2.1,2.2-4.2,3.5-6.1c-0.5,0.7,0,0,0.1-0.2
					c0.2-0.2,0.4-0.5,0.6-0.7c0.4-0.4,0.8-0.8,1.2-1.2c0.2-0.2,0.4-0.3,0.6-0.5c0.4-0.3-0.5,0.3,0.2-0.1c0.5-0.3,1.1-0.7,1.6-1
					c-1.8-2.4-3.6-4.7-5.5-7.1c-6.5,5.9-11.1,13.6-17.9,19.2c-0.2,0.1-0.3,0.3-0.5,0.4c-0.5,0.4,0.5-0.4-0.1,0
					c-0.4,0.3-0.8,0.6-1.2,0.8c-0.9,0.6-1.8,1.2-2.8,1.6c-0.4,0.2-0.8,0.4-1.3,0.6c-0.6,0.3,0.6-0.2,0,0c-0.2,0.1-0.4,0.1-0.6,0.2
					c-0.5,0.2-1,0.3-1.5,0.5c-0.1,0-0.8,0.2-0.8,0.2c0-0.1,0.7,0,0.8,0c0.3,0.1,0.7,0.3,0.9,0.6c0.1,0.1,0.5,0.8,0.2,0.2
					c0,0,0.3,0.8,0.2,0.3c-0.2-0.6,0,0.9,0,0.3c0-0.5-0.1,0.3-0.1,0.3c0.1-0.2,0.1-0.5,0.2-0.8c-0.1,0.2-0.4,0.7,0,0
					c0.2-0.3,0.3-0.6,0.5-0.9c1.2-1.9,2.6-3.7,4-5.5c0.5-0.6-0.3,0.4,0.1-0.2c0.2-0.3,0.5-0.6,0.7-0.9c0.4-0.5,0.8-1,1.2-1.5
					c0.8-1,1.7-2,2.5-3.1c1.8-2.1,3.6-4.1,5.4-6.1c1.3-1.4,1.8-3.7,0.7-5.5s-3-2.5-5.1-2.1c-4.8,0.9-8.5,4.3-11.4,8.1
					c-2.6,3.3-4.3,7.2-6.6,10.7c-0.3,0.4-0.6,0.9-0.9,1.3c-0.1,0.1-0.5,0.6,0,0c-0.2,0.2-0.3,0.4-0.5,0.6c-0.7,0.8-1.4,1.5-2.2,2.2
					c0.7-0.6-0.6,0.3-0.7,0.5c-0.5,0.3-0.9,0.5-1.4,0.8c0.7-0.4-0.4,0.1-0.6,0.2c-0.6,0.2-1.2,0.3-1.8,0.5c-0.9,0.2-0.2,0,0,0
					c-0.3,0-0.5,0.1-0.8,0.1c-0.5,0-1.1,0-1.6,0c-0.2,0-0.4,0-0.6,0c-0.7,0,0.7,0.2,0,0c-0.3-0.1-0.5-0.1-0.8-0.2
					c-0.8-0.2-0.2-0.2-0.1,0c-0.2-0.4,1.8,3.7,1.5,2.2c-0.1-0.6,0.5-0.2-0.1,0.3c0.1-0.1,0.2-0.9,0.3-1.1c0-0.1,0.1-0.3,0.1-0.4
					c0.1-0.6-0.4,0.8-0.1,0.3c0.2-0.4,0.4-0.7,0.6-1.1c0.2-0.3,0.4-0.6,0.6-1c0-0.1,0.3-0.5,0.3-0.5s-0.7,0.9-0.2,0.2
					c0.5-0.6,1-1.2,1.6-1.8c1.1-1.2,2.2-2.3,3.3-3.5c2.6-2.9,4.7-6,5-10c0.3-2.8-0.7-5.7-3.2-7.2c-2.1-1.3-4.6-0.9-6.9-0.6
					c-4.2,0.5-8.3,1.3-12.1,3.3c-2.2,1.2-4,2.8-5.5,4.8c-1.5,2.1-2.2,4.6-2.8,7.1c-0.1,0.6-0.3,1.1-0.4,1.7
					c-0.1,0.3-0.2,0.5-0.3,0.8c0.2-0.8,0,0-0.1,0.2c-0.3,0.5-0.6,1-0.9,1.5c-0.1,0.2-0.3,0.4-0.5,0.6c0.4-0.5,0.1-0.1-0.2,0.1
					c-1.6,1.8-3.5,3.4-5.4,4.9c2.6,1.1,5.1,2.1,7.7,3.2c0-0.3,0-0.6,0-0.8c0-0.1,0.1-0.7,0-0.2c-0.1,0.6,0.1-0.3,0.1-0.4
					c0-0.2,0.1-0.4,0.1-0.6c0.2-1,0.6-2,0.9-3c0.2-0.7-0.3,0.5,0-0.1c0.1-0.2,0.2-0.4,0.3-0.6c0.2-0.4,0.4-0.9,0.7-1.3
					c0.5-0.9,1.1-1.9,1.6-2.8c2.4-3.8,5.1-7.4,7.8-11c1.5-2,2.2-3,3.8-4.9c1.3-1.6,2.8-3.2,4.2-4.8c2.8-3.2,5.7-6.5,7.6-10.3
					c1-2,1.6-4.1,2.4-6.2c0.1-0.2,0.2-0.4,0.2-0.6c0.2-0.5,0.1-0.1-0.1,0.1c0.2-0.4,0.4-0.9,0.7-1.3c0.1-0.1,0.2-0.3,0.3-0.4
					c-0.1,0.1-0.2,0.3-0.3,0.4c0.1-0.1,0.2-0.2,0.3-0.3c0.4-0.2-0.3,0.1-0.3,0.2c0.1-0.2,0.7-0.4,0.8-0.5c-2.2-0.9-4.4-1.8-6.6-2.7
					c-0.2-0.9-0.1,1.1,0,0.3c-0.1,0.5-0.2,1-0.4,1.5c0,0.1-0.4,1-0.2,0.5c0.2-0.4-0.2,0.3-0.2,0.3c-0.3,0.6-0.6,1.2-0.9,1.8
					c-1.1,2-2.3,3.9-3.7,5.8c-1.5,2.1-2,2.7-3.6,4.7c-1.5,1.9-3.1,3.8-4.6,5.7c-3.3,4-6.5,8-9.8,12c-3,3.6-5.8,7.5-9.2,10.8
					c-0.5,0.5-0.9,0.9-1.4,1.3c-0.2,0.1-0.3,0.3-0.5,0.4c0,0-0.9,0.7-0.6,0.5c0.4-0.3-0.3,0.2-0.4,0.3c-0.3,0.2-0.6,0.4-0.9,0.6
					c-0.5,0.3-1,0.6-1.5,0.8c-0.8,0.4-0.3,0.1-0.1,0.1c-0.3,0.1-0.7,0.3-1,0.4c-0.6,0.2-1.2,0.3-1.8,0.5c-0.2,0-0.8,0.1,0,0
					c-0.3,0-0.5,0-0.8,0.1c-0.3,0-0.6,0-0.8,0c-1,0,0.6,0.1-0.5,0c1,1,2.1,2.1,3.1,3.1c0-0.1-0.2-1.2-0.1-0.6c0.1,0.6,0-0.6,0-0.6
					c0-0.6,0-1.2,0-1.8c0-0.3,0.1-0.7,0.1-1c0,0.4-0.1,0.5,0,0c0.1-0.6,0.2-1.2,0.4-1.7c0.1-0.3,0.2-0.6,0.3-0.9
					c0-0.1,0.5-1.1,0.2-0.6c-0.2,0.5,0.2-0.3,0.2-0.4c0.1-0.3,0.3-0.6,0.5-0.9c0.2-0.3,0.3-0.6,0.5-0.8c0-0.1,0.5-0.7,0.2-0.4
					c-0.3,0.4,0.3-0.3,0.3-0.4c0.2-0.2,0.4-0.5,0.6-0.7c3.4-3.7,7.6-6.8,8.7-12c0.5-2.3-0.7-5-3.1-5.5c-2.4-0.5-4.9,0.7-5.5,3.1
					c-0.2,0.9-0.5,1.8-0.9,2.7c-0.1,0.2-0.6,1.4-0.2,0.5c-0.2,0.5-0.4,0.9-0.7,1.4c-0.4,0.8-0.8,1.6-1.3,2.3
					c-0.2,0.3-0.4,0.6-0.6,0.9c-0.1,0.2-1.1,1.4-0.4,0.6c-1.1,1.4-2.3,2.7-3.7,3.8c-0.1,0.1-1.4,1.1-0.6,0.5
					c-0.3,0.2-0.6,0.4-0.9,0.7c-0.8,0.6-1.7,1.1-2.6,1.6c-2.1,1.1-2.9,4.2-1.6,6.2C104.1,56.1,106.7,56.8,108.9,55.6L108.9,55.6z"/>
			</g>
		</g>
		<g>
			<g>
				<path d="M46.8,39.4c1.5,0.5,3,0.8,4.5,0.9c1.6,0.2,3.1,0,4.6-0.2c0.6-0.1,1.1-0.4,1.5-0.8c0.5-0.3,0.9-0.7,1.2-1.3
					c0.3-0.5,0.5-1.1,0.5-1.7c0.1-0.6,0.1-1.2-0.1-1.8c-0.4-1.1-1-2.1-2.1-2.7c-0.4-0.2-0.7-0.3-1.1-0.5c-0.8-0.2-1.6-0.2-2.4,0
					h-0.1c0.4-0.1,0.8-0.1,1.2-0.2c-1.2,0.2-2.5,0.2-3.7,0c0.4,0.1,0.8,0.1,1.2,0.2c-1-0.1-2-0.4-2.9-0.7c-0.6-0.2-1.2-0.2-1.8-0.1
					c-0.6,0-1.2,0.2-1.7,0.5c-0.9,0.5-1.8,1.6-2.1,2.7c-0.3,1.2-0.2,2.4,0.5,3.5c0.2,0.3,0.5,0.6,0.7,0.9
					C45.3,38.8,46,39.2,46.8,39.4L46.8,39.4z"/>
			</g>
		</g>
		<g>
			<g>
				<path d="M133,17.2L133,17.2c0.2,0.3,0.5,0.6,0.7,0.9c0,0,0,0,0-0.1c0.2,0.4,0.3,0.7,0.5,1.1V19c0.1,0.4,0.1,0.8,0.2,1.2v-0.1
					c-0.1,0.4-0.1,0.8-0.2,1.2v-0.1c-0.2,0.4-0.3,0.7-0.5,1.1c0,0,0-0.1,0.1-0.1c-0.2,0.3-0.5,0.6-0.7,0.9l0.1-0.1
					c-0.3,0.2-0.6,0.5-0.9,0.7h0.1c-0.4,0.2-0.7,0.3-1.1,0.5h0.1c-0.4,0.1-0.8,0.1-1.2,0.2h0.1c0.6,0,1.2-0.1,1.7-0.4
					c0.6-0.2,1-0.5,1.4-0.9s0.7-0.9,0.9-1.4c0.3-0.5,0.4-1.1,0.4-1.7c-0.1-0.4-0.1-0.8-0.2-1.2c-0.2-0.8-0.6-1.4-1.2-2
					c-0.3-0.2-0.6-0.5-0.9-0.7c-0.7-0.4-1.5-0.6-2.3-0.6c0,0,0,0-0.1,0l0,0l0,0c-0.4,0.1-0.8,0.1-1.2,0.2l0,0l0,0l0,0l0,0
					c-0.4,0.2-0.7,0.3-1.1,0.5l0,0l0,0l0,0l0,0c-0.1,0.1-0.8,0.6-0.9,0.7c0,0-0.1,0-0.1,0.1c-0.1,0.2-0.3,0.4-0.4,0.5
					c-0.1,0.1-0.3,0.3-0.4,0.5l0,0l0,0c-0.1,0.2-0.2,0.5-0.2,0.5s-0.2,0.4-0.2,0.5l0,0l0,0l0,0l0,0l0,0c-0.1,0.4-0.1,0.8-0.2,1.2
					v0.1c0,0.2,0.1,0.7,0.1,0.6c0,0.1,0,0.4,0.1,0.6l0,0c0,0,0,0,0,0.1s0.4,1,0.5,1.1l0,0l0,0l0,0c0.1,0.2,0.5,0.6,0.4,0.5
					c0.1,0.1,0.2,0.3,0.4,0.5c0.4,0.4,0.9,0.7,1.4,0.9c0.5,0.3,1.1,0.4,1.7,0.4c0.6,0,1.2-0.1,1.7-0.4c0.6-0.2,1-0.5,1.4-0.9
					c0.2-0.3,0.5-0.6,0.7-0.9c0.4-0.7,0.6-1.5,0.6-2.3c-0.1-0.4-0.1-0.8-0.2-1.2C133.9,18.5,133.5,17.8,133,17.2L133,17.2z"/>
			</g>
		</g>
		<g>
			<g>
				<path d="M180.9,16.2C180.8,16.2,180.8,16.2,180.9,16.2c-0.3,0.3-0.6,0.5-0.9,0.7l0,0l0,0c-0.3,0.3-0.5,0.6-0.7,1l0,0
					c-0.2,0.4-0.3,0.7-0.5,1.1c0,0,0,0,0,0.1c-0.1,0.4-0.2,0.9-0.2,1.3c0,0,0,0,0,0.1c0,0.4,0.1,0.8,0.2,1.2c0,0,0,0,0,0.1
					c0.1,0.4,0.3,0.8,0.5,1.1l0,0l0,0c0.2,0.3,0.5,0.6,0.7,0.9l0,0l0,0c0.3,0.3,0.6,0.5,1,0.7c0.5,0.3,1.1,0.5,1.7,0.5
					c0.6,0.1,1.2,0.1,1.8-0.1c0.6-0.1,1.1-0.4,1.5-0.8c0.5-0.3,0.9-0.7,1.2-1.3c0.2-0.4,0.3-0.7,0.5-1.1c0.2-0.8,0.2-1.6,0-2.4
					c-0.2-0.4-0.3-0.7-0.5-1.1c-0.4-0.7-0.9-1.2-1.6-1.6l0,0c0.3,0.2,0.6,0.5,0.9,0.7c0,0,0,0-0.1-0.1c0.2,0.3,0.5,0.6,0.7,0.9
					c0,0,0-0.1-0.1-0.1c0.2,0.4,0.3,0.7,0.5,1.1V19c0.1,0.4,0.1,0.8,0.2,1.2v-0.1c-0.1,0.4-0.1,0.8-0.2,1.2v-0.1
					c-0.2,0.4-0.3,0.7-0.5,1.1c0,0,0-0.1,0.1-0.1c-0.2,0.3-0.5,0.6-0.7,0.9c0,0,0,0,0.1-0.1c-0.3,0.2-0.6,0.5-0.9,0.7l0,0
					c0.5-0.3,0.9-0.7,1.3-1.2c0.4-0.4,0.7-0.9,0.8-1.5c0.2-0.6,0.2-1.2,0.1-1.8c0-0.6-0.2-1.2-0.5-1.7c-0.2-0.3-0.5-0.6-0.7-0.9
					c-0.6-0.6-1.2-0.9-2-1.2c-0.4-0.1-0.8-0.1-1.2-0.2C182.3,15.6,181.6,15.8,180.9,16.2L180.9,16.2z"/>
			</g>
		</g>
		<g>
			<g>
				<path d="M287.2,22.8c0.1,0.2,0.1,0.5,0.2,0.7c0-0.1,0-0.8,0-0.3c0,0.4,0,0.8,0,1.2c0,0.9,0.2-0.6,0,0.2
					c-0.1,0.5-0.2,0.9-0.4,1.4c-0.1,0.2-0.3,0.8,0.1-0.1c-0.1,0.2-0.2,0.3-0.2,0.5c-0.2,0.4-0.4,0.8-0.6,1.1s-0.4,0.6-0.6,0.9
					c0.5-0.7-0.3,0.3-0.5,0.5c-0.3,0.3-0.6,0.6-0.9,0.9c-0.1,0.1-0.3,0.2-0.4,0.4c0.1-0.1,0.7-0.5,0,0s-1.5,0.9-2.3,1.3
					c0,0-0.7,0.3-0.3,0.1c0.5-0.2-0.4,0.1-0.5,0.2c-0.5,0.2-0.9,0.3-1.4,0.5c-1,0.3-1.9,0.5-2.9,0.7c-0.2,0-0.4,0.1-0.6,0.1
					c-0.7,0.1,0.6,0-0.1,0c-0.4,0-0.9,0.1-1.3,0.1c-1.1,0.1-2.2,0.1-3.3,0.2c-0.9,0-1.9,0-2.8,0.1c-0.5,0-0.9,0-1.4,0
					c-0.3,0-0.5,0-0.8,0c0.4,0,0.6,0.1,0.1,0c-0.1,0-0.7-0.2-0.2,0s-0.2-0.4,0,0l0.4,0.4l-0.3-0.5c-0.1-0.1-0.4-0.9-0.2-0.4
					s0-0.2-0.1-0.2c-0.2-0.6-0.4-1.2-0.6-1.7c-0.3-1-0.7-1.9-0.9-2.9c-0.1-0.5-0.3-1-0.4-1.6c0,0-0.1-0.8-0.1-0.3
					c0.1,0.5-0.1-0.7-0.1-0.8c0-0.5,0-1.1,0-1.6s0-0.1,0,0.1c0-0.2,0.1-0.4,0.1-0.7c0-0.1,0.2-1,0.1-0.4c-0.2,0.5,0,0,0.1-0.1
					c-0.3,0.2-0.9,0.7-1.1,0.9c-0.3,0.1-0.3,0.1,0.1,0c0.1,0,0.2,0,0.4-0.1c-0.1,0-0.8,0.1-0.2,0c0.4,0,0.8-0.1,1.2-0.1
					c0.5-0.1,1.1-0.1,1.6-0.3c1.2-0.4,2.4-1,3.5-1.7c1.6-1.1,3.2-2.3,4.9-3.2c0.8-0.4,1.6-0.9,2.4-1.3c0.4-0.2,0.9-0.4,1.3-0.6
					c0,0,0.7-0.3,0.2-0.1s0.5-0.2,0.6-0.2c3.6-1.4,7.5-2.3,11.3-3c0.4-0.1,0.8-0.1,1.2-0.2c-0.9,0.1,0.5-0.1,0.7-0.1
					c1-0.1,2.1-0.2,3.1-0.3c2-0.2,4.1-0.2,6.1-0.3c10.4-0.2,20.8,0.7,31.1-0.2c2.3-0.2,4.6-1.9,4.5-4.5c-0.1-2.7-2-4.2-4.5-4.5
					c-7.4-0.9-15.1,0.3-21.8,3.7c-6.9,3.6-11.4,9.9-15,16.7c-3.7,6.9-7.4,13.7-12.2,20c0.1-0.1,0.3-0.4,0,0
					c-0.2,0.2-0.4,0.5-0.6,0.7c-0.3,0.4-0.6,0.7-0.9,1.1c-0.7,0.8-1.3,1.6-2,2.4c-1.2,1.4-2.5,2.7-4,3.9c-0.4,0.3,0,0,0.1-0.1
					c-0.2,0.2-0.5,0.3-0.7,0.5c-0.4,0.2-0.7,0.5-1.1,0.7s-0.8,0.4-1.1,0.6c-0.1,0.1-0.8,0.3-0.1,0.1c-0.3,0.1-0.5,0.2-0.8,0.3
					c-0.8,0.3-1.6,0.5-2.5,0.7c-0.5,0.1-1,0.2-1.5,0.3s0,0,0.1,0c-0.3,0-0.6,0.1-0.9,0.1c-2.1,0.2-4.2,0.3-6.3,0.1
					c-0.5,0-0.9-0.1-1.4-0.1c-0.5-0.1,0.2,0,0.2,0c-0.3-0.1-0.6-0.1-1-0.2c-0.4-0.1-0.9-0.2-1.3-0.4c-0.1,0-0.7-0.2-0.2,0
					c0.6,0.2-0.4-0.2-0.5-0.3c-0.2-0.1-0.3-0.2-0.5-0.3c-0.5-0.2,0.4,0.4,0,0c-0.1-0.1-0.2-0.2-0.4-0.3c-0.5-0.4,0,0.2,0.1,0.2
					c-0.1,0-0.7-0.9-0.6-1.1c0-0.1,0.2,0.9,0.2,0.4c0-0.2-0.1-0.4-0.2-0.6c0,0-0.1-0.4-0.1-0.5c0,0,0.1,1,0.1,0.1c0-1-0.2,0.5,0-0.1
					c0-0.1,0.1-0.3,0.1-0.4c0.1-0.2,0.1-0.2-0.1,0.1c-0.2,0.4-0.1,0.4,0,0l0.1-0.1c0.1-0.2,0.1-0.2-0.1,0.1
					c-0.2,0.3-0.2,0.3-0.1,0.1c0.2-0.2,0.1-0.1-0.3,0.2c-2.1-0.5-4.1-1.1-6.2-1.6c0.5,0.7,0.9,1.5,1.4,2.2c1.3,2,4.1,3,6.2,1.6
					c2-1.3,3-4,1.6-6.2c-0.5-0.7-0.9-1.5-1.4-2.2c-1.2-1.9-4.1-3.1-6.2-1.6c-3.7,2.6-5.1,7.2-3.5,11.4c1.6,4.3,5.5,7.1,10,7.9
					c8.8,1.7,18.7,0.1,25.6-5.8c3.4-2.9,6.1-6.5,8.7-10c2.6-3.4,5-7.1,7.2-10.8c2-3.5,3.7-7.1,5.7-10.6c0.9-1.7,1.9-3.3,3-4.9
					c0.1-0.2,0.9-1.2,0.4-0.5c0.3-0.4,0.6-0.7,0.9-1.1c0.7-0.8,1.4-1.5,2.1-2.2c0.1-0.1,0.3-0.3,0.4-0.4c0.1-0.1,0.9-0.7,0.2-0.1
					c0.4-0.3,0.8-0.6,1.3-0.9c0.8-0.5,1.6-1,2.5-1.5c0.5-0.2,0.9-0.4,1.4-0.7c0.6-0.3-0.6,0.2,0,0c0.2-0.1,0.5-0.2,0.7-0.3
					c1-0.4,2-0.7,3-0.9c1-0.3,2-0.4,3.1-0.6c0.7-0.1-0.7,0.1,0,0c0.3,0,0.5-0.1,0.8-0.1c0.5,0,1.1-0.1,1.6-0.1
					c2.2-0.1,4.3,0,6.5,0.2c0-3,0-6,0-9c-10.4,1-20.9,0-31.4,0.3c-9.5,0.2-18.9,1.5-27.6,5.4c-2,0.9-3.9,1.9-5.6,3.1
					c-0.9,0.6-1.7,1.2-2.6,1.8c-0.5,0.3-0.9,0.6-1.4,0.9c-0.7,0.4-0.2,0.1,0,0.1c-0.1,0-1.2,0.4-0.6,0.2c0.6-0.1-0.2,0-0.4,0
					c-0.5,0.1-1.1,0.1-1.6,0.2c-0.4,0.1-0.8,0.2-1.3,0.3c-1.7,0.6-3.2,1.8-4,3.5c-1.2,2.5-1.4,5.3-1.1,8.1c0.3,2.7,1.1,5.3,2.1,7.9
					c1,2.7,2.2,5.4,5,6.7c2.5,1.1,5.1,1,7.8,1c2.4,0,4.8-0.2,7.1-0.5c5.4-0.7,10.7-2.5,14.6-6.6c3.8-4,5.8-9.5,4.5-15
					c-0.6-2.3-3.3-3.9-5.5-3.1C287.9,18,286.6,20.3,287.2,22.8L287.2,22.8z"/>
			</g>
		</g>
		<g>
			<g>
				<path d="M328.2,42c0.8-2.6,1.2-5.5,0.6-8.2c-0.8-3.5-3.8-5.9-7.4-6.2c-5.9-0.5-11,4.3-12.5,9.7c-0.7,2.4-0.7,5.2,0.2,7.6
					c0.5,1.4,1.2,2.6,2,3.8c0.4,0.6,0.7,1.2,1.1,1.8c-0.4-0.7-0.1-0.4-0.1-0.1c0.1,0.4,0.2,0.8,0.3,1.2c0.2,0.6,0-1.1,0,0
					c0,0.2,0,0.5,0,0.7c0,0.1-0.1,1.2,0,0.4s-0.1,0.3-0.1,0.4c-0.1,0.4-0.5,1.4-0.1,0.5c-0.1,0.3-0.3,0.6-0.5,0.9
					c-0.1,0.2-0.8,1-0.1,0.2c-0.1,0.2-0.3,0.3-0.5,0.5c0,0-0.8,0.8-0.3,0.3s-0.3,0.2-0.4,0.2c-0.2,0.1-0.4,0.2-0.6,0.3
					c-0.9,0.5,0.6-0.1,0,0c-0.3,0.1-0.6,0.1-0.8,0.2c-0.6,0.2-0.1-0.2,0.2,0c0,0-0.9,0.1-1,0.1c-0.3,0-0.6,0-0.9,0s-0.2,0,0.3,0.1
					c-0.2,0-0.3-0.1-0.5-0.1c-0.3-0.1-0.5-0.2-0.8-0.2c-1-0.3,0.7,0.4-0.2-0.1c-0.2-0.1-0.4-0.2-0.6-0.3s-0.4-0.2-0.6-0.4
					c0.4,0.3,0.5,0.4,0.3,0.2s-0.4-0.4-0.6-0.6c0.5,0.5,0,0-0.2-0.3c-0.1-0.2-0.3-0.7,0,0c-0.1-0.4-0.2-1-0.2-0.3
					c0-0.1,0.1-1.2,0-0.5c-0.1,0.4,0,0.3,0.1-0.1c-0.3,0.6-0.3,0.6,0,0.2c-0.1,0.2-0.6,0.6-0.1,0.2c-1,0.8,0,0,0.1,0
					c-0.2,0.1-0.3,0.2-0.5,0.2c0.4-0.1,0.4-0.1,0,0c-0.3,0.1-0.6,0.1-0.9-0.1c0.5,0.1,0.4,0.1-0.2-0.1c0.4-2.7,0.7-5.5,1.1-8.2
					c-5.3,0.8-7.8,7.5-6.1,12.1c2.1,5.5,8.4,7.7,13.9,7.1c5.5-0.6,10.4-2.9,14.9-6c4.2-2.9,8.3-6.2,12.1-9.7
					c4.1-3.9,7.8-8.7,8.9-14.3c0.4-1.9-0.2-4.1-2.1-5.1c-1.8-0.9-4-0.8-5.5,0.7c-3.7,3.8-7.4,7.8-10.1,12.3
					c-1.3,2.3-2.5,4.8-3.2,7.4c-0.7,2.7-1.3,6.2-0.4,8.9c1.3,3.8,5.4,5,9,4.5c3-0.4,5.7-1.4,8.1-3.2c2.6-1.9,4.6-4.3,6.5-7
					c0.8-1.1,1.5-2.1,2.3-3.2c0.4-0.5,0.8-1.1,1.2-1.6c0.5-0.7-0.7,0.8,0.2-0.3c0.3-0.3,0.6-0.7,0.8-1c0.9-1.1,1.9-2.1,3-3.1
					c0.5-0.5,1.1-1,1.6-1.4c0.3-0.2,0.6-0.5,0.8-0.7c0.2-0.1,0.3-0.3,0.5-0.4c-0.3,0.2-0.3,0.2-0.1,0.1c3.1-2.4,6.2-5.7,4.8-10
					c-0.5-1.5-1.6-2.7-3.1-3.1c-1.4-0.4-3.4-0.1-4.4,1.2c-6.4,8.2-11.5,17-15.5,26.6c-0.4,1-0.1,2.6,0.5,3.5c0.7,1,1.5,1.6,2.7,2.1
					c7.8,3.2,16.5-0.9,22-6.6c2.7-2.8,5-6,7.3-9.2c2.6-3.6,5.2-7.1,7.8-10.7c-2.6-1.5-5.2-3-7.8-4.5c-3.1,5.8-6.3,11.6-10.2,16.9
					c0,0-0.9,1.2-0.4,0.5c-0.2,0.2-0.4,0.5-0.6,0.7c-0.5,0.6-0.9,1.2-1.4,1.7c-1.1,1.3-2.3,2.5-3.4,3.7c-2.4,2.6-4.3,5.3-5.7,8.5
					c-0.4,0.9-0.7,1.8-1.1,2.7c0.3-0.6-0.1,0.1-0.1,0.2c-0.2,0.4-0.4,0.8-0.6,1.2c-0.3,0.6-0.6,1.1-1,1.6c-0.1,0.1-0.8,1.1-0.2,0.3
					c-0.2,0.3-0.5,0.6-0.7,0.9c-0.5,0.5-0.9,1-1.5,1.5c-0.2,0.2-0.5,0.4-0.7,0.6c-0.1,0.1-1.1,0.8-0.3,0.2c-1.1,0.8-2.3,1.6-3.6,2.2
					c-0.3,0.2-0.7,0.3-1,0.5c-0.8,0.4-0.1,0.1,0,0c-0.8,0.3-1.6,0.6-2.4,0.8c-1.6,0.5-3.3,0.9-4.9,1.1c0.8-0.1-0.2,0-0.4,0
					c-0.4,0-0.8,0.1-1.2,0.1c-0.8,0.1-1.5,0.1-2.3,0.1c-1.9,0-3.7-0.1-5.5-0.2c-0.2,0-0.8,0.1,0,0c-0.5-0.1-0.5-0.1-0.1,0
					c0.2,0.1,0.4,0.3,0.5,0.5c0,0-0.3-0.6-0.4-0.7c-0.2-0.5-0.2-0.5,0,0c-0.1-0.2-0.2-0.5-0.2-0.7c0,0-0.3-1.2-0.2-0.5
					c0,0.3,0,0.3,0-0.2c0-0.3,0-0.5,0-0.8c0-0.2,0.2-1.4,0-0.3c0.1-0.4,0.2-0.7,0.3-1.1c-0.3,1,0.1-0.1,0.2-0.3
					c0.4-0.9-0.5,0.4,0.1-0.2c0.2-0.2,1-0.8,0.1-0.2c0.3-0.2,0.6-0.4,0.9-0.5c0.9-0.5-0.8,0.1,0.2-0.1c0.2-0.1,0.4-0.1,0.7-0.2
					c-0.2,0-0.4,0-0.5,0.1c0.1-0.1,0.9-0.1,1,0c-0.6-0.1-0.7-0.1-0.2,0c0.5,0.2,0.4,0.1-0.1-0.1c2.2,0.9,4.9,0.7,6.2-1.6
					c1-1.9,0.7-5.2-1.6-6.2c-4-1.7-8.2-1.3-11.7,1.4c-3.2,2.5-4.8,6.7-4.3,10.7c0.3,2.2,0.8,4.4,2.1,6.2c1.7,2.4,3.9,3.4,6.8,3.8
					c4.2,0.5,8.3,0.3,12.5-0.3c7.1-1.1,14.3-4.5,18.8-10.1c1.2-1.5,2.2-3,3-4.7c0.5-1.1,1-2.3,1.4-3.4c0.1-0.2,0.5-1.2,0.3-0.6
					c0.2-0.5,0.4-1,0.7-1.4c0.4-0.7,0.9-1.4,1.3-2.1c0.3-0.4,0,0-0.1,0.1c0.1-0.2,0.3-0.3,0.4-0.5c0.3-0.4,0.6-0.7,1-1.1
					c1.2-1.3,2.4-2.6,3.6-3.9c5.9-6.6,10.2-14.4,14.4-22.1c1.1-2.1,0.6-5-1.6-6.2c-2.3-1.2-4.7-0.4-6.2,1.6
					c-2.3,3.2-4.6,6.3-6.9,9.5c-1.1,1.4-2.1,2.9-3.2,4.3c0,0-0.9,1.1-0.3,0.4c-0.3,0.3-0.5,0.7-0.8,1c-0.5,0.6-1.1,1.3-1.6,1.9
					c-0.6,0.6-1.1,1.2-1.7,1.8c-0.3,0.3-0.6,0.6-0.9,0.8c-0.1,0.1-1.1,0.9-0.4,0.3c-0.6,0.5-1.3,0.9-2,1.3c-0.3,0.2-0.7,0.4-1.1,0.6
					c-0.8,0.5,0.6-0.2-0.4,0.2c-0.8,0.3-1.5,0.5-2.3,0.7c-0.1,0-1.2,0.2-0.6,0.1c0.6-0.1-0.6,0-0.8,0.1c-0.4,0-0.8,0-1.2,0
					c-0.2,0-0.4,0-0.6,0c0.5,0.1,0.6,0.1,0.2,0c-0.8-0.2-1.6-0.4-2.4-0.7c1,1.8,2.1,3.7,3.1,5.5c0.2-0.5,0.2-0.6,0.1-0.2
					c0.1-0.3,0.2-0.5,0.4-0.8c0.2-0.5,0.5-1.1,0.7-1.6c0.5-1.1,1-2.2,1.5-3.2c1-2,2.1-4,3.2-5.9s2.3-3.8,3.6-5.7c0.7-1,1.3-2,2-2.9
					c0.3-0.5,0.7-1,1.1-1.4c0.2-0.2,0.4-0.5,0.5-0.7c-0.3,0.3-0.2,0.3,0.1-0.1c-2.5-0.7-5-1.3-7.5-2c0.3,0.8,0,0,0-0.2
					c0-0.4,0.1-0.6,0.2-1c-0.1,0.2-0.5,0.6,0.1,0c-0.1,0.1-0.3,0.3-0.4,0.4c-0.2,0.2-0.4,0.4-0.6,0.5c-0.1,0.1-0.7,0.6-0.3,0.3
					c0.4-0.3-0.1,0.1-0.2,0.1c-0.5,0.4-1,0.7-1.4,1.1c-1.8,1.4-3.4,2.9-4.9,4.6c-1.7,1.9-3.3,3.9-4.7,6c-0.6,0.8-1.2,1.7-1.8,2.5
					c-0.3,0.5-0.7,0.9-1,1.4c0.1-0.2,0.5-0.6-0.1,0.1c-0.2,0.3-0.5,0.6-0.7,0.8c-0.7,0.8-1.4,1.5-2.3,2.2c0.6-0.5-0.4,0.2-0.6,0.4
					c-0.5,0.3-1.1,0.6-1.6,0.9c0.8-0.3-0.4,0.1-0.6,0.2c-0.3,0.1-0.5,0.1-0.8,0.2c-0.6,0.2,0.7,0,0,0c-0.5,0-0.9,0-1.4,0
					c0.8,0,0.3,0,0.1,0c-0.1,0-0.2-0.1-0.3-0.1c0.5,0.1,0.9,0.4,1.1,1c0.2,0.3,0.4,0.5,0.6,0.8c0,0.5,0.1,0.6,0,0.3
					c0-0.2,0-0.4,0-0.6c0-0.5,0.1-1.1,0.1-1.6c0-0.2,0.2-0.8,0,0c0.1-0.3,0.1-0.5,0.1-0.8c0.1-0.5,0.2-1,0.4-1.5
					c0.1-0.5,0.3-1,0.5-1.5c0.1-0.2,0.1-0.4,0.2-0.5c0.2-0.6-0.3,0.6,0,0c0.5-0.9,0.9-1.9,1.5-2.8c0.6-1,1.3-2,2-3
					c0.1-0.2,0.2-0.3,0.4-0.5c0.8-1.1-0.5,0.7,0.3-0.4c0.3-0.4,0.7-0.8,1-1.3c1.6-1.9,3.3-3.6,5-5.4c-2.5-1.5-5-2.9-7.5-4.4
					c-0.2,0.9-0.4,1.7-0.7,2.6c-0.3,0.8,0,0.1,0,0c-0.1,0.2-0.2,0.5-0.3,0.7c-0.2,0.5-0.5,0.9-0.7,1.3c-0.5,0.8-1,1.5-1.5,2.2
					c0.5-0.7-0.2,0.2-0.4,0.4c-0.3,0.4-0.7,0.8-1,1.2c-2.7,2.9-5.8,5.3-8.9,7.8c-0.1,0.1-1.4,1.1-0.8,0.6c-0.4,0.3-0.8,0.6-1.2,0.9
					c-0.9,0.6-1.7,1.2-2.6,1.8c-0.8,0.5-1.7,1-2.5,1.5c-0.4,0.2-0.9,0.5-1.3,0.7c-0.2,0.1-0.5,0.2-0.7,0.4c-0.2,0.1-1,0.4-0.3,0.1
					c-0.9,0.3-1.8,0.7-2.7,0.9c-0.5,0.1-0.9,0.2-1.4,0.3c-0.2,0-0.4,0.1-0.6,0.1c0.9-0.1-0.1,0-0.2,0c-0.4,0-0.9,0-1.3,0
					c-0.1,0-1.4-0.1-0.9,0c0.6,0-0.6-0.1-0.8-0.2c-0.2-0.1-0.5-0.1-0.7-0.2c-0.8-0.2,0.3,0.2-0.1,0c-0.1-0.1-0.3-0.2-0.5-0.2
					c-0.1-0.1-0.8-0.7-0.4-0.2c0.4,0.4,0,0-0.1-0.1c-0.7-0.8,0.3,0.4,0,0c-0.2-0.2-0.2-0.6-0.1-0.1c0.1,0.7,0-0.1,0-0.3
					c0-0.1-0.2-0.6,0,0c0.2,0.7,0,0,0-0.3c0-0.6,0.3,0.1-0.1,0.4c0.1,0,0.1-0.5,0.1-0.5c0.1-0.6,0.2,0.2-0.2,0.3
					c0.1,0,0.2-0.4,0.3-0.5c0.3-0.6-0.1,0.2-0.2,0.3c0.5-0.6-0.6,0.4-0.2,0.1c0.1,0,0.3-0.1,0.3-0.2c-0.6,0.2-0.8,0.3-0.4,0.2
					c0.1,0,0.3-0.1,0.4-0.1c1.7-0.3,3-2.2,3.2-3.7c0.2-1.7-0.6-3.6-2.1-4.5c-3.3-1.8-7.4-1-9.9,1.9c-2.7,3.1-2.7,7.4-0.7,10.9
					c3.1,5.4,10.3,7.7,16,5.5c6.3-2.4,9.6-9.1,8.3-15.6c-0.3-1.4-0.9-2.9-1.7-4.1c-0.4-0.6-0.8-1.1-1.1-1.7c-0.2-0.3-0.4-0.7-0.6-1
					c-0.5-0.7,0.2,0.7,0-0.1c-0.1-0.3-0.2-0.6-0.2-0.9c-0.2-0.9,0.1,0.3,0,0.3c0,0-0.1-1.5,0-1.5c0,0.2-0.1,0.4-0.1,0.6
					c0-0.2,0.1-0.4,0.1-0.6c0-0.2,0.1-0.4,0.2-0.6c0-0.1,0.1-0.2,0.1-0.3c0.2-0.5,0.1-0.4-0.1,0.2c0-0.2,0.4-0.7,0.4-0.8
					c0.1-0.2,0.3-0.4,0.4-0.7c0.2-0.3,0.1-0.2-0.2,0.3c0.1-0.2,0.3-0.3,0.4-0.5c0.1-0.1,0.3-0.3,0.4-0.4c0.4-0.3,0.3-0.3-0.2,0.1
					c0.2-0.1,0.3-0.2,0.5-0.3s0.4-0.2,0.5-0.3c0.7-0.4-0.8,0.2,0.3-0.1c0.3-0.1,1-0.4,0.3-0.1c0.5,0,0.6,0,0,0
					c-0.1-0.1-0.2-0.1-0.3-0.2c0.9,0.3-0.6-0.6,0,0c-0.4-0.5-0.5-0.6-0.3-0.3s0.1,0.2-0.1-0.4c0.1,0,0.2,0.7,0.2,0.7
					c0.1,0.3,0,0.2-0.1-0.4c0,0.2,0,0.4,0,0.6c0,0.2,0,0.4,0,0.7c0,0.5,0,0.4,0.1-0.2c0,0.2-0.1,0.4-0.1,0.7
					c-0.1,0.6-0.3,1.3-0.5,1.9c-0.7,2.3,0.8,5,3.1,5.5C325.1,45.7,327.5,44.5,328.2,42L328.2,42z"/>
			</g>
		</g>
		<g>
			<g>
				<path d="M359.8,63.8c8,2.1,17.3-0.5,22.8-6.9c0.8-1,1.6-2,2.3-3.1c0.2-0.4,0.5-0.7,0.7-1.1c0.1-0.1,1-1.4,0.6-0.9
					c1.4-1.8,3.2-3.5,4.9-5.1c3.5-3.6,7-7.2,10.6-10.8c1.6-1.6,1.7-4.1,0.4-5.9c-1.2-1.6-4-2.5-5.8-1.2c-4.1,3.1-7,7.1-9.6,11.5
					c-1.3,2.2-2.6,4.4-3.9,6.7c-1.4,2.4-3,4.8-4,7.4c-0.5,1.3-0.7,2.8-0.6,4.2c0.1,1.3,0.4,2.7,1.4,3.6c0.8,0.8,1.9,1.2,2.9,1.5
					c2.5,0.9,5.5,0.8,8.1,0c5-1.4,8.7-5.3,12.2-8.9c4-4.2,8-8.5,11.2-13.4c1.3-2,0.5-5.1-1.6-6.2c-2.2-1.2-4.8-0.5-6.2,1.6
					c-0.4,0.6-0.8,1.3-1.3,1.9c-0.2,0.3-0.4,0.6-0.7,0.9c-0.1,0.1-0.7,0.9-0.3,0.3c-0.9,1.1-1.8,2.2-2.8,3.3c-2,2.2-4,4.3-6.1,6.4
					c-0.9,1-1.9,1.9-2.8,2.8c-0.3,0.2-0.5,0.5-0.8,0.7c-0.6,0.5,0.2-0.1-0.2,0.2c-0.5,0.3-1,0.7-1.6,1c-0.3,0.2-0.6,0.3-0.9,0.5
					c-0.4,0.2,0.5-0.1-0.2,0.1c-0.3,0.1-0.6,0.2-1,0.3c-0.2,0.1-1.1,0.1-0.2,0.1c-0.3,0-0.5,0-0.8,0c0,0-1.2,0-0.6,0
					s-0.4-0.1-0.6-0.1c-0.2-0.1-1.2-0.5-0.4-0.1c0.7,0.9,1.4,1.8,2.1,2.7c0.1,0.5,0,0.3,0-0.1c0,0.5-0.1,0.3,0-0.1
					c0.1-0.3,0.2-0.6,0.3-0.8c-0.2,0.5,0,0.1,0.1-0.2c0.6-1.2,1.3-2.3,2-3.4c1.4-2.3,2.7-4.6,4.1-6.8c1.1-1.9,2.3-3.8,3.6-5.7
					c0.2-0.2,0.3-0.4,0.5-0.7s0.3-0.4,0-0.1c0.4-0.5,0.8-0.9,1.2-1.4c0.4-0.4,0.7-0.8,1.1-1.2c0.2-0.2,0.4-0.4,0.6-0.5
					c0.1-0.1,0.8-0.7,0.2-0.2c-1.8-2.4-3.6-4.7-5.5-7.1c-3.3,3.4-6.6,6.7-9.9,10.1c-1.6,1.6-3.2,3.2-4.7,4.8c-1.6,1.7-2.7,3.7-4,5.6
					c-0.1,0.2-0.3,0.4-0.4,0.6c0.3-0.4,0.4-0.5,0.2-0.2c-0.3,0.3-0.5,0.6-0.8,0.9c-0.3,0.3-0.6,0.6-0.9,0.9c-0.2,0.2-1.2,1-0.3,0.3
					c-0.7,0.5-1.4,0.9-2.1,1.4c-0.4,0.2-0.8,0.4-1.3,0.6c-1.1,0.5,0.9-0.3-0.2,0.1c-0.8,0.3-1.6,0.5-2.4,0.7
					c-0.5,0.1-0.9,0.2-1.4,0.3c1.1-0.2,0,0-0.2,0c-0.8,0.1-1.7,0.1-2.5,0c-0.2,0-0.5,0-0.7-0.1c0.6,0.1,0.7,0.1,0.1,0
					c-0.5-0.1-0.9-0.2-1.4-0.3c-2.3-0.6-5,0.8-5.5,3.1C356.2,60.6,357.4,63.1,359.8,63.8L359.8,63.8z"/>
			</g>
		</g>
		<g>
			<g>
				<path d="M382.6,22.9c0.4,0.5,0.8,1,1.2,1.5c0.4,0.4,0.9,0.7,1.4,0.9c0.5,0.3,1.1,0.4,1.7,0.4s1.2-0.1,1.7-0.4
					c0.6-0.2,1-0.5,1.4-0.9c0.2-0.3,0.5-0.6,0.7-0.9c0.4-0.7,0.6-1.5,0.6-2.3c-0.1-0.4-0.1-0.8-0.2-1.2c-0.2-0.8-0.6-1.4-1.2-2
					c-0.4-0.5-0.8-1-1.2-1.5c-0.4-0.4-0.9-0.7-1.4-0.9c-0.5-0.3-1.1-0.4-1.7-0.4s-1.2,0.1-1.7,0.4c-0.6,0.2-1,0.5-1.4,0.9
					c-0.2,0.3-0.5,0.6-0.7,0.9c-0.4,0.7-0.6,1.5-0.6,2.3c0.1,0.4,0.1,0.8,0.2,1.2C381.6,21.7,382,22.3,382.6,22.9L382.6,22.9z"/>
			</g>
		</g>
		<g>
			<g>
				<path d="M405.8,24.8c0.9-0.3,1.7-0.5,2.6-0.8c0.6-0.1,1.1-0.4,1.5-0.8c0.5-0.3,0.9-0.7,1.2-1.3c0.3-0.5,0.5-1.1,0.5-1.7
					c0.1-0.6,0.1-1.2-0.1-1.8c-0.2-0.4-0.3-0.7-0.5-1.1c-0.4-0.7-0.9-1.2-1.6-1.6c-0.4-0.2-0.7-0.3-1.1-0.5c-0.8-0.2-1.6-0.2-2.4,0
					c-0.9,0.3-1.7,0.5-2.6,0.8c-0.6,0.1-1.1,0.4-1.5,0.8c-0.5,0.3-0.9,0.7-1.2,1.3c-0.3,0.5-0.5,1.1-0.5,1.7
					c-0.1,0.6-0.1,1.2,0.1,1.8c0.2,0.4,0.3,0.7,0.5,1.1c0.4,0.7,0.9,1.2,1.6,1.6c0.4,0.2,0.7,0.3,1.1,0.5
					C404.2,25,405,25,405.8,24.8L405.8,24.8z"/>
			</g>
		</g>
	</g>
</g>
</svg>
