<?xml version="1.0" encoding="utf-8"?>
<!-- Generator: Adobe Illustrator 25.2.3, SVG Export Plug-In . SVG Version: 6.00 Build 0)  -->
<svg version="1.1" id="レイヤー_1" xmlns="http://www.w3.org/2000/svg" xmlns:xlink="http://www.w3.org/1999/xlink" x="0px"
	 y="0px" viewBox="0 0 825 717" style="enable-background:new 0 0 825 717;" xml:space="preserve">
<style type="text/css">
	.st0{fill:none;stroke:#000000;stroke-width:54.5558;stroke-linecap:round;stroke-miterlimit:10;}
	.st1{fill:none;stroke:#000000;stroke-width:78.2578;stroke-linecap:round;stroke-miterlimit:10;}
	.st2{stroke:#000000;stroke-width:54.5558;stroke-linecap:round;stroke-miterlimit:10;}
	.st3{fill:none;stroke:#000000;stroke-width:7.4268;stroke-linecap:round;stroke-miterlimit:10;}
	.st4{fill:none;stroke:#000000;stroke-width:6.2759;stroke-linecap:round;stroke-miterlimit:10;}
	.st5{fill:none;stroke:#000000;stroke-width:10.3222;stroke-linecap:round;stroke-miterlimit:10;}
	.st6{fill:#FFFFFF;stroke:#000000;stroke-miterlimit:10;}
</style>
<path class="st0" d="M743.2,670.6C786.9,545.3,750,66.4,425.9,43C103.4,63.4,57.4,520.9,108.6,670.6"/>
<path class="st1" d="M64,395c41.7-269.9,676.3-255.3,711,0"/>
<ellipse class="st2" cx="352.8" cy="367" rx="0.8" ry="11"/>
<ellipse class="st2" cx="495.6" cy="367" rx="0.8" ry="11"/>
<path class="st3" d="M576.4,433.7c11,167-302.8,160.4-302.8,13.2C275.9,698.4,547.4,817.1,576.4,433.7z"/>
<path class="st4" d="M286.9,472.9"/>
<line class="st5" x1="192" y1="423.2" x2="198.2" y2="414.2"/>
<line class="st5" x1="215.5" y1="423.9" x2="221.6" y2="414.8"/>
<line class="st5" x1="238.9" y1="424.5" x2="245.1" y2="415.5"/>
<line class="st5" x1="608" y1="422" x2="614.2" y2="412.9"/>
<line class="st5" x1="631.5" y1="422.6" x2="637.7" y2="413.6"/>
<line class="st5" x1="655" y1="423.3" x2="661.1" y2="414.3"/>
<path class="st6" d="M267.5,485.5"/>
</svg>
