<svg version="1.1" xmlns="http://www.w3.org/2000/svg" xmlns:xlink="http://www.w3.org/1999/xlink" x="0px" y="0px"
	 viewBox="0 0 403 80.5" style="enable-background:new 0 0 403 80.5;" xml:space="preserve">
<g id="mask">
	<g>
		<g>
			<path d="M-2.2,52c3.4,6.2,10.4,8.7,17.2,7.7c8.5-1.2,14.1-7.4,19.1-13.9c6.1-7.9,13-14.4,20.5-21c3.8-3.3,7.5-6.7,11.3-10
				c3.7-3.3,7.1-6.6,12.2-7.5c-1.6-2.8-3.2-5.6-4.9-8.4c-9.5,7.8-17.3,17.7-22.3,29c-3.7,8.3-11.5,27.2,1.9,31.2
				c5.7,1.7,10.3-2.8,14.2-6.2c5-4.3,9.7-8.9,14-13.8c4.5-5,8.7-10.3,12.5-15.7c2-2.8,3.9-5.7,5.7-8.6c1.7-2.7,3-5.6,6-7
				c-2-2.6-4-5.2-6.1-7.9C92.6,8.1,86,16.2,80.4,25.1c-5.4,8.7-9.2,18.2-15.3,26.4c3,1.3,6.1,2.6,9.1,3.9c2.5-7.1,5.2-15.2,12-19.4
				c1.4-0.9,3.1-1.7,4.8-1.9c1.1-0.1,2.2,0.4,2.2-0.1c0.1,1-10.7,1.7-11.6,1.9c-5.7,1.2-4.1,9.6,1.3,9.8c1,0-0.1,6.5,0,7.7
				c0,2.4,0.7,4.5,2.6,6c3.9,3.1,9.9,2.2,13.9-0.1c4.6-2.6,8-7.1,10.5-11.7c2.6-4.6,4.9-10.8,10.5-12.4c-1.9-2.4-3.8-4.9-5.6-7.3
				c-2.9,4.1-5.6,8.4-7.9,13c-1.7,3.4-4.7,8.2-3.6,12.2c2.4,9.4,15.6,3.7,20.3-0.2c3.7-3.1,6.4-7.2,9.1-11.1
				c3.2-4.7,7-8.4,11.1-12.3c3.4-3.3,6.4-7,8.7-11.2c1.1-2,2-4.1,2.8-6.2c0.5-1.3,1.5-5.3,1.7-5.4c-2.3-2.3-4.6-4.6-6.8-6.8
				c-11.9,16.9-22.7,34.5-32.3,52.7c2.9,1.7,5.8,3.4,8.6,5c4.1-8,10-14.5,16.9-20.1c0.9-0.7,1.8-1.5,2.8-2.1c1.5-1.1,2-0.8,1.2-2.5
				c-1.3-2.4-0.8,0.2-1,1.2c-0.2,1-0.4,2-0.7,3c-1.4,4.3-4.1,8-7.8,10.6c-2.9,2-3.5,6.7,0,8.6c7,3.8,14.7,2,20.8-2.8
				c6.5-5,9.8-12.9,15.9-18.2c-2.6-2-5.2-4-7.9-6.1c-2.2,3.7-4.4,7.4-6.6,11.1c-1.9,3.2-5.1,7-5.9,10.7c-1.7,7.9,7,10.4,13,9.1
				c7.4-1.5,12-7.4,16.4-13.1c5.5-7.2,11.1-14.3,16.6-21.5c3.5-4.6-3.9-9.9-7.9-6.1c-9.7,9.7-16.7,21.5-20.3,34.8
				c-0.9,3.1,1.6,6.3,4.8,6.3c8.5,0,14.3-5.7,20.8-10.3c7.3-5.1,15.1-9.4,23.2-12.8c5.8-2.4,3.8-11.3-2.7-9.6
				c-7.6,2-14.2,6.8-18.2,13.6c-3.5,5.9-6,16,3,18.2c6.9,1.7,14.6-2.8,18.9-7.8c5.1-6,7.1-13.7,5.3-21.3c-3,1.3-6.1,2.6-9.1,3.9
				c4.7,7.9,14.6,11.8,23.4,8.5c6-2.2,3.4-11.9-2.7-9.6c-4.6,1.7-9.5,0.5-12.1-3.9c-3-5-10.4-1.6-9.1,3.9c0.8,3.7,0,7.3-2,10.5
				c-1,1.5-2.2,2.8-3.6,3.9c-1.7,1.2-3.7,1.4-5.3,2.4c-0.4,0-0.8,0.1-1.2,0.1c0.3,0.6,0.7,1.2,1,1.8c0.1,0,0.7-2.4,0.8-2.7
				c0.7-1.8,1.7-3.5,2.9-4.9c2.7-3.4,6.4-5.5,10.6-6.6c-0.9-3.2-1.8-6.4-2.7-9.6c-7.4,3.1-14.5,6.6-21.3,10.9
				c-5.8,3.7-12.9,11.8-20.1,11.8c1.6,2.1,3.2,4.2,4.8,6.3c3.2-11.6,9.2-21.9,17.8-30.4c-2.6-2-5.2-4-7.9-6.1
				c-2.7,3.5-23.9,34.9-28.9,29.9c0.5,1.2,1,2.4,1.5,3.5c-0.2-2.5,3.8-7.2,5.1-9.3c2-3.4,4.1-6.9,6.1-10.3c3-5.1-3.7-9.7-7.9-6.1
				c-4.4,3.8-7.2,8.6-10.8,13.1c-3,3.8-8.6,9.1-13.8,6.3c0,2.9,0,5.8,0,8.6c6.1-4.2,10.7-10.1,12.7-17.3c1.5-5.4,2.3-14.6-5.2-15.7
				C143.7,22.3,136.4,30,132,34c-5.8,5.3-10.7,11.5-14.3,18.5c-2.9,5.7,5.6,10.8,8.6,5c9.7-18.2,20.5-35.8,32.3-52.7
				c3.1-4.4-2.8-8.9-6.8-6.8c-2.9,1.5-4,4-4.9,6.9c-1.2,3.7-2.3,7.1-4.4,10.4c-4.2,6.6-10.9,10.9-15.5,17c-2.4,3.2-4.4,6.8-7,9.9
				c-1.3,1.6-2.7,3-4.5,4.1c-1.3,0.8-2.9,1-4.1,1.7c-2.8-0.3-2.3,0.7,1.7,2.9c0.3-0.6,0.5-1.3,0.8-1.9c0.9-2.1,1.9-4.1,3-6
				c1.9-3.5,4-6.8,6.3-10c2.6-3.6-1.7-8.5-5.6-7.3c-11.8,3.4-13,15.2-20.6,22.9c-0.9,1-2,2-3.3,2.5c-0.4,0.1-0.8,0.3-1.2,0.4
				c-1.5-0.3-1.7,0.1-0.5,1.1c0.9,3,1-1.4,1.1-2.1c0.1-1.6,0.2-3.1,0-4.7c-0.7-5.5-4.6-9.6-10.3-9.8c0.4,3.3,0.9,6.5,1.3,9.8
				c7-1.4,16.2-0.2,18.9-9c2-6.5-3.3-11.7-9.4-12.4c-16.4-1.8-24.7,16-29.1,28.6c-2,5.8,6,8.1,9.1,3.9c5.7-7.8,9.4-16.7,14.4-24.9
				C93.4,23,99.8,15,106.3,7c3.6-4.4-0.8-10.4-6.1-7.9c-4,2-6.4,5.4-8.7,9.1c-2.7,4.4-5.5,8.7-8.6,12.8
				c-6.4,8.6-13.7,16.5-21.7,23.6c-0.8,0.7-4.7,4.9-5.8,4.7c-1.2-0.3,0.6-6.6,0.8-7.2c1.3-4.7,3-9.2,5.3-13.5
				C66.2,19.9,72.6,12.3,80.3,6c4.2-3.5-0.5-9.2-4.9-8.4C68.1-1,62.8,4.2,57.4,9c-6.7,5.9-13.5,11.7-20,17.9
				c-5.7,5.5-9.9,12.1-15.3,17.8c-3.5,3.7-12.1,8.8-15.7,2.3C3.4,41.3-5.3,46.4-2.2,52L-2.2,52z"/>
		</g>
	</g>
	<g>
		<g>
			<path d="M41.9,34.7c3.2,2.2,7.4,2.7,11.1,1.6c2.5-0.8,4.3-3.5,3.5-6.2c-0.8-2.5-3.5-4.3-6.2-3.5c-0.3,0.1-0.6,0.2-0.9,0.2
				c0.6-0.1,0.6-0.1,0,0c-0.3,0-1.5-0.2-0.5,0.1c-0.4-0.1-0.9-0.2-1.3-0.3c1,0.3-0.6-0.4-0.8-0.5c-2.2-1.5-5.6-0.5-6.8,1.8
				C38.8,30.3,39.6,33.1,41.9,34.7L41.9,34.7z"/>
		</g>
	</g>
	<g>
		<g>
			<path d="M125.7,23.5c0.5,0,1,0,1.5,0c1.3,0,2.6-0.6,3.5-1.5c0.5-0.5,0.8-1,1-1.6c0.3-0.6,0.5-1.2,0.4-1.9
				c-0.1-1.3-0.5-2.6-1.5-3.5c-1-0.9-2.2-1.5-3.5-1.5c-0.5,0-1,0-1.5,0c-1.3,0-2.6,0.6-3.5,1.5c-0.5,0.5-0.8,1-1,1.6
				c-0.3,0.6-0.5,1.2-0.4,1.9c0.1,1.3,0.5,2.6,1.5,3.5C123.2,22.9,124.4,23.5,125.7,23.5L125.7,23.5z"/>
		</g>
	</g>
	<g>
		<g>
			<path d="M175.1,15.8c0,0.5,0,1,0,1.5c0,1.3,0.6,2.6,1.5,3.5c0.5,0.5,1,0.8,1.6,1c0.6,0.3,1.2,0.5,1.9,0.4
				c1.3-0.1,2.6-0.5,3.5-1.5c0.9-1,1.5-2.2,1.5-3.5c0-0.5,0-1,0-1.5c0-1.3-0.6-2.6-1.5-3.5c-0.5-0.5-1-0.8-1.6-1
				c-0.6-0.3-1.2-0.5-1.9-0.4c-1.3,0.1-2.6,0.5-3.5,1.5C175.7,13.3,175.1,14.5,175.1,15.8L175.1,15.8z"/>
		</g>
	</g>
	<g>
		<g>
			<path d="M179.9,32.8c7.5,1.2,14.8,1.6,22.4,0.9c6.3-0.6,6.4-10.6,0-10c-6.6,0.6-13.2,0.6-19.7-0.5
				C176.3,22.1,173.6,31.8,179.9,32.8L179.9,32.8z"/>
		</g>
	</g>
	<g>
		<g>
			<path d="M278,19.2c1.2,6.2-15.1,12-18,6.7c-1-1.8-0.6-6.3,0.5-8c1.8-2.9,8.8-2.8,12.1-3.3c17.6-2.7,35.3-4,53.1-4.2
				c6.5-0.1,6.4-9.6,0-10c-8.2-0.5-16.9-0.6-24.3,3.4c-7.3,3.9-12.1,12-15.6,19.2c-1.7,3.6-2.8,7.5-4.6,11c-2.1,4.3-5.5,7.5-9,10.6
				c-3.9,3.5-7.3,5.3-12.5,5.8c-1.8,0.2-3.8,0.3-5.7,0.1c-0.9-0.1-1.8-0.3-2.6-0.5c-1.1-0.9-2.1-0.7-3.1,0.6
				c5.8-2.5,3.3-12.1-2.7-9.6c-9.8,4.1-5.6,16,3.1,18.7c10.1,3.1,21.6,0,29.3-6.7c4.1-3.6,8.4-7.6,11.1-12.4
				c2.8-4.9,4.2-10.4,6.9-15.4c2.8-5.2,6.3-11.1,12.1-13.4c5.5-2.1,11.8-1.6,17.6-1.3c0-3.3,0-6.7,0-10c-15,0.2-29.9,1.2-44.8,3.1
				c-7.1,0.9-14.4,1.6-21.4,3.3c-5.8,1.4-8.3,5.6-9.4,11.2c-2.3,11.5,4.2,21.2,16.5,19.7c10.9-1.3,23.5-8.4,21-21.1
				C286.4,10.2,276.8,12.9,278,19.2L278,19.2z"/>
		</g>
	</g>
	<g>
		<g>
			<path d="M320.3,40.4c9.7-9.6-8.5-20.5-16.8-13.2c-3.6,3.2-3.8,8.6-2.4,12.9c0.7,2.2,3.9,6,3.4,8.3c-0.2,1.1-0.8,1.5-2,1.8
				c-0.5,0.2-1,0.2-1.5,0.1c-1.5-1-2.5-0.4-3.1,1.9c-0.4-3.3-0.9-6.5-1.3-9.8c-5.9,1.5-8.5,8.6-5.4,13.7c3.8,6.4,12.7,6.5,19,5.1
				c7.6-1.8,14.2-6.6,19.9-11.8c5.8-5.3,10.9-11,11.5-19.2c0.3-3.8-4.4-6.2-7.5-4.3c-6.8,4.1-12,10.1-14.9,17.5
				c-2.4,6.1-4,17.3,5.9,16.4c6.9-0.6,13.3-6,18.2-10.5c2.6-2.4,5-4.9,7.5-7.4c1-1,2-2,3-3c2.2-1.9,1.8-0.5-1.5-1.1
				c-1.2-1.2-2.3-2.3-3.5-3.5c-0.4-2.3,1.3-3.9-0.6-1.9c-0.7,0.7-1.2,1.6-1.8,2.4c-1.8,2.3-3.6,4.5-5.2,6.9
				c-3.2,4.6-7.2,12.3-0.9,16.2c6,3.7,14.9-2,19.6-5.6c6.5-5,11.5-11.6,15.3-18.8c3.1-5.7-5.1-10.4-8.6-5
				C359.3,40,352,51.2,344.8,62.3c-3.4,5.3-6.9,7.2-13.1,8.9c-2.9,0.8-6,1.4-9.1,1c-4.1-0.4-2.7-1.6,0.4-3.1c5.8-2.8,0.7-11.4-5-8.6
				c-6.7,3.2-11.7,11.8-5.4,18c6.3,6.2,17.8,3.8,25.2,1.3c4-1.4,8-2.9,11-6c3.1-3.3,5.4-7.5,7.8-11.3c6.2-9.5,12.3-19.1,18.5-28.6
				c-2.9-1.7-5.8-3.4-8.6-5c-2.5,4.7-5.5,9.2-9.3,13c-1.8,1.8-3.8,3.4-6,4.7c-0.7,0.4-5.5,3.4-6.4,2.8c0.8,1,1.5,2,2.3,3
				c-1.1-2.6,5.3-9,6.8-10.9c2.2-2.8,5.1-5.6,4.5-9.5c-0.3-1.5-1.9-3.2-3.5-3.5c-3.6-0.6-6.1,1.7-8.6,4c-3.8,3.6-7.3,7.5-11.2,11
				c-2.1,1.9-4.3,3.6-6.8,4.9c-0.7,0.4-3.2,1-3.6,1.6c-1.7,0.3-0.9,1.1,2.4,2.1c0.1-0.7,0.3-1.5,0.5-2.2c1.7-6.4,5.8-11.7,11.5-15.1
				c-2.5-1.4-5-2.9-7.5-4.3c-0.5,6.7-8.9,12.9-13.9,16.4c-2.7,1.9-5.5,3.5-8.7,4.5c-1.6,0.5-3.2,0.8-4.8,0.8c-1,0.1-2,0-3-0.3
				c-1-1-1.6-0.8-2,0.3c5.3-1.4,4.4-10.2-1.3-9.8c-6.2,0.4-10.2,6.8-7,12.5c3,5.2,9.9,6.6,15.2,4.8c5.6-1.9,9-7.1,8.2-12.9
				c-0.5-3.6-2.9-6.3-3.8-9.7c-0.2-0.6-0.6-2-0.1-2.6c-0.9,0.7-0.6,0.9,1.1,0.7c1.6,0.9,2.1,0.3,1.7-1.7
				C308.6,37.9,315.7,45,320.3,40.4L320.3,40.4z"/>
		</g>
	</g>
	<g>
		<g>
			<path d="M351.3,57.9c7.9,6.7,18.2-0.7,24.9-5.7c7.1-5.3,16.1-11.3,18.4-20.3c1.3-5.3-6.7-9.2-9.1-3.9c-1.8,3.9-3.9,7.6-6.6,11
				c-1.9,2.3-4,4.6-5.3,7.3c-2.7,5.5-1.6,12.8,5.7,12.7c13.6-0.2,26.6-9.1,27.9-23.2c0.6-6.4-9.4-6.4-10,0c-0.4,4.1-2.9,7.5-6.3,9.7
				c-2.8,1.8-8.4,4.2-11.9,3.6c1,0.8,2,1.5,3,2.3c-0.4-0.8,5-6.6,5.9-7.8c2.5-3.3,4.5-6.8,6.3-10.6c-3-1.3-6.1-2.6-9.1-3.9
				c-1.4,5.5-7.4,9.2-11.6,12.6c-2.5,2-5,3.9-7.8,5.5c-0.9,0.6-6.5,4.2-7.3,3.5C353.5,46.7,346.4,53.7,351.3,57.9L351.3,57.9z"/>
		</g>
	</g>
	<g>
		<g>
			<path d="M372.7,16.4c0.1,0.6,0.3,1.2,0.4,1.9c0.2,0.7,0.5,1.2,0.9,1.7c0.4,0.5,0.8,1,1.4,1.3c0.6,0.4,1.2,0.6,1.9,0.6
				c0.7,0.1,1.3,0.1,2-0.1c1.2-0.4,2.4-1.1,3-2.3c0.2-0.4,0.3-0.8,0.5-1.2c0.2-0.9,0.2-1.8,0-2.7c-0.1-0.6-0.3-1.2-0.4-1.9
				c-0.2-0.7-0.5-1.2-0.9-1.7c-0.4-0.5-0.8-1-1.4-1.3c-0.6-0.4-1.2-0.6-1.9-0.6c-0.7-0.1-1.3-0.1-2,0.1c-1.2,0.4-2.4,1.1-3,2.3
				c-0.2,0.4-0.3,0.8-0.5,1.2C372.5,14.6,372.5,15.5,372.7,16.4L372.7,16.4z"/>
		</g>
	</g>
	<g>
		<g>
			<path d="M393.9,20.6c0.4,0.5,0.8,1,1.2,1.5c0.5,0.5,1,0.8,1.6,1c0.6,0.3,1.2,0.5,1.9,0.4c0.7,0,1.3-0.1,1.9-0.4
				c0.6-0.2,1.2-0.5,1.6-1c0.9-1,1.5-2.2,1.5-3.5c-0.1-0.4-0.1-0.9-0.2-1.3c-0.2-0.8-0.7-1.6-1.3-2.2c-0.4-0.5-0.8-1-1.2-1.5
				c-0.5-0.5-1-0.8-1.6-1c-0.6-0.3-1.2-0.5-1.9-0.4c-0.7,0-1.3,0.1-1.9,0.4c-0.6,0.2-1.2,0.5-1.6,1c-0.9,1-1.5,2.2-1.5,3.5
				c0.1,0.4,0.1,0.9,0.2,1.3C392.8,19.2,393.3,19.9,393.9,20.6L393.9,20.6z"/>
		</g>
	</g>
</g>
</svg>
