<?xml version="1.0" encoding="utf-8"?>
<!-- Generator: Adobe Illustrator 25.3.1, SVG Export Plug-In . SVG Version: 6.00 Build 0)  -->
<svg version="1.1" id="base" xmlns="http://www.w3.org/2000/svg" xmlns:xlink="http://www.w3.org/1999/xlink" x="0px" y="0px"
	 viewBox="0 0 403 80.5" style="enable-background:new 0 0 403 80.5;" xml:space="preserve">
<g>
	<path d="M40.8,32.1c-2.6,3.3-5.3,6.5-8.1,9.6c-2.8,3.1-5.6,5.8-8.4,8.2c-2.8,2.4-5.6,4.3-8.4,5.7c-2.8,1.4-5.4,2.1-8,2.1
		c-1.8,0-3.2-0.2-4.2-0.6c-1-0.4-1.8-0.9-2.4-1.4c-0.6-0.6-0.9-1.1-1.1-1.8C0.1,53.2,0,52.6,0,52.2c0-0.9,0.3-1.7,0.8-2.3
		c0.5-0.6,1.3-1,2.2-1c0.9,0,1.5,0.3,2,0.9c0.5,0.6,0.7,1.3,0.7,2.1c0,0.5-0.1,1-0.4,1.4c-0.3,0.5-0.6,0.8-1.1,0.9
		c0.5,0.7,1.1,1.2,2,1.5C7.1,55.9,8,56,8.9,56c2.3,0,4.7-0.7,7.2-2c2.5-1.3,5.1-3.1,7.7-5.2c2.6-2.2,5.2-4.6,7.7-7.4
		c2.6-2.7,5-5.6,7.4-8.4c1-1.3,2.3-2.9,3.8-4.7c1.5-1.9,3.2-3.9,5.2-6.1c1.9-2.2,4-4.4,6.3-6.7c2.3-2.3,4.7-4.4,7.2-6.4
		c2.6-2,5.2-3.8,8-5.4C72.1,2,75,0.8,77.8,0l0.2,0.3C76.3,2,74.4,4,72.4,6.5c-2,2.5-3.9,5.1-5.8,8c-1.9,2.9-3.7,5.9-5.4,9
		c-1.7,3.1-3.2,6.3-4.5,9.4c-1.3,3.1-2.3,6.1-3.1,9c-0.8,2.9-1.2,5.5-1.2,7.9c0,1.7,0.3,3.1,0.8,4.2c0.6,1.1,1.7,1.7,3.4,1.7
		c1,0,2.2-0.4,3.5-1.1c1.3-0.7,2.7-1.7,4.1-3c1.4-1.2,2.9-2.6,4.3-4.1c1.4-1.5,2.8-3,4-4.4s2.4-2.9,3.4-4.2c1-1.3,1.8-2.4,2.4-3.2
		L79,36c-1.8,2.3-3.7,4.7-5.8,7.3c-2,2.6-4.1,4.9-6.2,7c-2.1,2.1-4.2,3.9-6.3,5.2c-2.1,1.4-4.1,2.1-6,2.1c-1.3,0-2.4-0.2-3.2-0.7
		c-0.9-0.5-1.6-1.1-2.2-1.9c-0.6-0.8-1-1.7-1.3-2.7c-0.3-1-0.4-2.1-0.4-3.2c0-3,0.4-6,1.3-8.8c0.9-2.8,1.8-5.6,2.9-8.3H40.8z
		 M52.2,31.1c2.4-5,5.2-9.8,8.5-14.6C64,11.8,67.8,7.3,72.3,3l-0.2-0.2C69.3,4.3,66.6,6,63.9,8c-2.7,2-5.3,4.3-7.9,6.7
		c-2.6,2.5-5.1,5.1-7.5,7.8c-2.4,2.8-4.8,5.6-7.1,8.6H52.2z"/>
	<path d="M104.2,1.6C99.9,8.5,95.5,15.3,91.1,22c-4.4,6.7-8.9,13.3-13.6,19.8l0.2,0.2c1.4-1.5,2.8-3.1,4.1-4.7
		c1.4-1.6,2.8-3,4.2-4.2c1.5-1.3,3-2.3,4.6-3.1c1.6-0.8,3.2-1.2,4.9-1.2c1.8,0,3,0.4,3.8,1.3c0.8,0.9,1.2,1.9,1.2,3.1
		c0,1.3-0.4,2.4-1.2,3.4c-0.8,1-1.7,1.8-2.9,2.6c-1.1,0.7-2.4,1.3-3.8,1.7c-1.4,0.4-2.6,0.7-3.7,1V42c0.6,0.3,1.2,0.9,1.6,1.8
		c0.5,0.9,0.7,1.8,0.7,2.8c0,0.6-0.1,1.3-0.4,2c-0.2,0.7-0.5,1.4-0.8,2.2c-0.3,0.7-0.6,1.5-0.8,2.2c-0.2,0.7-0.4,1.5-0.4,2.2
		c0,1,0.4,1.5,1.3,1.5c1.4,0,3.3-0.6,5.4-1.9c2.2-1.3,4.5-3.1,7-5.6c1.7-1.7,3.4-3.6,5.2-5.7s3.7-4.6,5.7-7.5l0.7,0.5
		c-1,1.4-2.5,3.4-4.4,5.9c-1.9,2.5-4.2,5.1-6.8,7.7c-2.5,2.5-4.9,4.4-7.1,5.7s-4.3,1.9-6.2,1.9c-1.6,0-2.8-0.3-3.7-1
		s-1.3-1.8-1.3-3.2c0-0.7,0.2-1.6,0.6-2.5c0.4-0.9,0.8-1.8,1.2-2.7c0.4-0.9,0.8-1.7,1.2-2.5c0.4-0.8,0.6-1.4,0.6-1.9
		c0-1-0.5-1.5-1.4-1.5c-0.5,0-1.2,0.1-1.9,0.3c-0.7,0.2-1.5,0.3-2.4,0.3c-0.8,0-1.2-0.2-1.2-0.7c0-0.5,0.4-0.7,1.2-0.7
		c0.3,0,0.7,0,1.1,0.1c0.4,0.1,0.9,0.1,1.5,0.1c1.6,0,3.1-0.2,4.4-0.6c1.4-0.4,2.5-0.9,3.6-1.6c1-0.7,1.8-1.6,2.4-2.6
		c0.6-1,0.8-2.2,0.8-3.4c0-1.1-0.3-1.9-0.8-2.5c-0.5-0.5-1.2-0.8-1.9-0.8c-1,0-2.2,0.4-3.5,1.2c-1.3,0.8-2.8,1.9-4.3,3.4
		c-1.5,1.4-3.1,3-4.6,4.9c-1.6,1.8-3.1,3.8-4.6,5.8c-1.5,2-2.8,4-4.1,6c-1.3,2-2.4,3.9-3.3,5.6h-5.3c5.9-9.2,11.8-18.4,17.7-27.5
		c5.9-9.1,11.8-18.3,17.8-27.6L104.2,1.6z"/>
	<path d="M122.6,29.4c-2.9,4.2-5.4,7.8-7.4,10.6c-2,2.9-3.7,5.3-4.9,7.2c-1.3,1.9-2.2,3.4-2.7,4.6c-0.6,1.1-0.8,2-0.8,2.7
		c0,1.4,0.6,2.1,1.7,2.1c1.1,0,2.3-0.4,3.7-1.2c1.4-0.8,2.9-1.8,4.4-3c1.5-1.2,3.1-2.6,4.6-4.2c1.5-1.5,3-3.1,4.4-4.6
		c1.4-1.5,2.6-3,3.6-4.4c1-1.4,1.8-2.6,2.3-3.5l0.6,0.4c-0.6,1.1-1.5,2.3-2.6,3.8c-1.1,1.5-2.3,3-3.7,4.6c-1.4,1.6-2.9,3.1-4.4,4.7
		c-1.5,1.5-3.1,2.9-4.7,4.2c-1.6,1.2-3.2,2.2-4.7,3c-1.5,0.7-2.9,1.1-4.2,1.1c-1.4,0-2.5-0.4-3.2-1.2c-0.7-0.8-1-1.7-1-2.6
		c0-1.1,0.3-2.3,0.8-3.6c0.5-1.3,1.3-2.8,2.4-4.6c1.1-1.8,2.6-4,4.4-6.6c1.8-2.6,3.9-5.8,6.4-9.6H122.6z M127.3,14.6
		c0.7,0,1.4,0.3,1.8,0.8c0.5,0.5,0.7,1.1,0.7,1.9s-0.2,1.4-0.7,1.9c-0.5,0.5-1.1,0.8-1.8,0.8c-0.7,0-1.4-0.3-1.8-0.8
		c-0.5-0.5-0.7-1.1-0.7-1.9s0.2-1.4,0.7-1.9C125.9,14.8,126.5,14.6,127.3,14.6z"/>
	<path d="M158.2,1.6l-28.3,42.1l0.2,0.2c1.1-1.3,2.3-2.9,3.8-4.6c1.4-1.7,3-3.4,4.7-4.9c1.7-1.5,3.5-2.9,5.3-3.9
		c1.9-1.1,3.7-1.6,5.6-1.6c3.3,0,4.9,1.6,4.9,4.9c0,0.9-0.3,1.9-0.9,3c-0.6,1.2-1.4,2.4-2.3,3.7c-0.9,1.3-1.9,2.6-3,4
		c-1.1,1.3-2.1,2.6-3,3.9c-0.9,1.3-1.7,2.4-2.3,3.5c-0.6,1.1-0.9,2-0.9,2.8c0,0.6,0.2,1.1,0.5,1.5c0.3,0.4,0.8,0.6,1.4,0.6
		c1.2,0,2.6-0.4,4-1.2c1.5-0.8,3-1.8,4.6-3c1.6-1.3,3.1-2.7,4.7-4.2c1.5-1.5,3-3.1,4.3-4.6c1.3-1.5,2.5-3,3.5-4.3
		c1-1.4,1.8-2.5,2.3-3.3l0.5,0.2c-0.6,1-1.4,2.2-2.5,3.7c-1.1,1.4-2.3,3-3.6,4.6c-1.4,1.6-2.8,3.2-4.4,4.8c-1.6,1.6-3.1,3-4.7,4.2
		c-1.6,1.3-3.1,2.3-4.7,3s-3,1.2-4.3,1.2c-1.4,0-2.5-0.4-3.4-1.3s-1.3-2-1.3-3.5c0-1.1,0.3-2.2,0.9-3.5c0.6-1.3,1.4-2.6,2.3-3.9
		c0.9-1.3,1.9-2.6,3-3.9c1.1-1.3,2.1-2.5,3-3.7c0.9-1.2,1.7-2.3,2.3-3.2c0.6-1,0.9-1.8,0.9-2.5c0-0.9-0.2-1.4-0.7-1.8
		c-0.5-0.3-1.1-0.5-1.8-0.5c-1.3,0-2.8,0.5-4.4,1.5c-1.6,1-3.3,2.3-5,3.9c-1.7,1.6-3.5,3.4-5.2,5.4c-1.7,2-3.3,4-4.8,6
		c-1.5,2-2.9,3.9-4,5.8c-1.1,1.8-2,3.4-2.7,4.6h-5.2c2.9-4.6,5.9-9.3,9-14c3.1-4.7,6.2-9.5,9.2-14.2c3.1-4.7,6.1-9.3,9-13.9
		c2.9-4.6,5.7-8.9,8.3-13.1L158.2,1.6z"/>
	<path d="M175.9,29.4c-2.9,4.2-5.4,7.8-7.4,10.6c-2,2.9-3.7,5.3-4.9,7.2c-1.3,1.9-2.2,3.4-2.7,4.6c-0.6,1.1-0.8,2-0.8,2.7
		c0,1.4,0.6,2.1,1.7,2.1c1.1,0,2.3-0.4,3.7-1.2c1.4-0.8,2.9-1.8,4.4-3c1.5-1.2,3.1-2.6,4.6-4.2c1.5-1.5,3-3.1,4.4-4.6
		c1.4-1.5,2.6-3,3.6-4.4c1-1.4,1.8-2.6,2.3-3.5l0.6,0.4c-0.6,1.1-1.5,2.3-2.6,3.8c-1.1,1.5-2.3,3-3.7,4.6c-1.4,1.6-2.9,3.1-4.4,4.7
		c-1.5,1.5-3.1,2.9-4.7,4.2c-1.6,1.2-3.2,2.2-4.7,3c-1.5,0.7-2.9,1.1-4.2,1.1c-1.4,0-2.5-0.4-3.2-1.2c-0.7-0.8-1-1.7-1-2.6
		c0-1.1,0.3-2.3,0.8-3.6c0.5-1.3,1.3-2.8,2.4-4.6c1.1-1.8,2.6-4,4.4-6.6c1.8-2.6,3.9-5.8,6.4-9.6H175.9z M180.6,14.6
		c0.7,0,1.4,0.3,1.8,0.8c0.5,0.5,0.7,1.1,0.7,1.9s-0.2,1.4-0.7,1.9c-0.5,0.5-1.1,0.8-1.8,0.8c-0.7,0-1.4-0.3-1.8-0.8
		c-0.5-0.5-0.7-1.1-0.7-1.9s0.2-1.4,0.7-1.9C179.2,14.8,179.8,14.6,180.6,14.6z"/>
	<path d="M198.8,20.2l-6.3,9.3H203l-0.5,1h-10.7c-2.1,3.5-4,6.5-5.7,9c-1.7,2.5-3.1,4.7-4.2,6.6c-1.1,1.8-2,3.4-2.6,4.6
		c-0.6,1.3-0.9,2.4-0.9,3.3c0,1,0.3,1.7,1,2.1c0.7,0.4,1.5,0.6,2.4,0.6c1.9,0,4-0.7,6.4-2.2c2.3-1.5,4.6-3.3,6.9-5.4
		c2.3-2.1,4.5-4.4,6.6-6.8c2.1-2.4,3.8-4.6,5.3-6.5l0.5,0.3c-1.8,2.3-3.8,4.7-6,7.2c-2.2,2.5-4.4,4.9-6.7,7
		c-2.3,2.1-4.6,3.9-6.9,5.2c-2.3,1.4-4.5,2.1-6.6,2.1c-1.7,0-3.1-0.5-4.3-1.5c-1.2-1-1.8-2.4-1.8-4.2c0-1.2,0.3-2.6,1-4.1
		c0.7-1.5,1.6-3.2,2.7-4.9s2.4-3.7,3.8-5.8s2.9-4.3,4.4-6.6h-4.3l0.5-1h4.5l6.2-9.3H198.8z"/>
	<path d="M242.9,36.7c-1.3,1.4-2.7,2.6-4.3,3.4c-1.6,0.9-3.2,1.3-4.7,1.3c-1.5,0-2.8-0.3-3.8-1c-1.1-0.7-1.9-1.5-2.5-2.4h-0.2
		c-0.5,2-1.5,4.2-3,6.5c-1.4,2.3-3.2,4.4-5.2,6.3s-4.2,3.5-6.6,4.8c-2.4,1.3-4.9,1.9-7.4,1.9c-2.3,0-4-0.7-5.2-2
		c-1.2-1.3-1.8-3.1-1.8-5.4c0-1.2,0.3-2.5,0.9-4.1c0.6-1.5,1.4-3.1,2.4-4.7c1-1.6,2.3-3.1,3.7-4.6c1.4-1.5,2.9-2.9,4.6-4.1
		s3.4-2.2,5.2-2.9s3.7-1.1,5.6-1.1c2.2,0,3.9,0.6,5.1,1.9c1.2,1.3,1.9,2.9,2,5c0.1,1.2,0.7,2.4,1.7,3.4s2.5,1.6,4.3,1.6
		c1.6,0,3.1-0.4,4.5-1.2c1.4-0.8,2.7-1.8,4-3.1L242.9,36.7z M202.6,52.2c0,1.4,0.3,2.5,0.8,3.3c0.5,0.8,1.3,1.2,2.4,1.2
		c1.4,0,2.9-0.4,4.3-1.2c1.4-0.8,2.8-1.8,4.1-3c1.3-1.3,2.5-2.7,3.6-4.3c1.1-1.6,2.1-3.3,2.9-5c0.8-1.7,1.5-3.4,2-5
		c0.5-1.6,0.7-3.1,0.7-4.4c0-1.1-0.3-2.1-0.8-2.8c-0.6-0.8-1.4-1.2-2.6-1.2c-1.1,0-2.3,0.4-3.6,1.1s-2.6,1.7-3.9,2.8
		c-1.3,1.2-2.5,2.5-3.7,4.1c-1.2,1.5-2.2,3.1-3.2,4.8c-0.9,1.7-1.7,3.3-2.2,5C202.9,49.2,202.6,50.7,202.6,52.2z"/>
	<path d="M285,17.4c0.1,0.5,0.1,1,0.1,1.5c0,0.5,0,1,0,1.4c0,2.1-0.5,4.1-1.5,6c-1,1.9-2.4,3.6-4.2,5c-1.8,1.5-3.9,2.6-6.4,3.5
		c-2.5,0.9-5.1,1.3-8.1,1.3c-4.4,0-7.6-1-9.8-3c-2.2-2-3.2-4.5-3.2-7.7c0-2.6,0.9-5.2,2.6-7.9c1.7-2.7,4.6-5.2,8.6-7.4
		c4-2.2,9.3-4.1,15.8-5.6c6.6-1.5,14.7-2.2,24.4-2.2c3,0,5.7,0.1,8.2,0.2s4.6,0.2,6.3,0.2c1.5,0,2.8-0.1,3.9-0.2s1.9-0.2,2.7-0.2
		c0.6,0,1.2,0.2,1.8,0.6c0.5,0.4,0.8,1,0.8,1.7c0,0.5-0.1,0.9-0.4,1.2c-0.3,0.3-0.8,0.5-1.6,0.6c-0.7,0.1-1.7,0.2-3,0.2
		c-1.3,0-2.8,0-4.8,0c-3.7,0-6.8,0.7-9.3,2c-2.5,1.3-4.8,3.3-6.9,5.9c-2.1,2.6-4.3,5.9-6.6,9.9c-2.3,4-5.1,8.6-8.6,13.9
		c-1.2,1.8-2.7,3.9-4.4,6.2c-1.8,2.3-3.9,4.5-6.4,6.5c-2.5,2-5.3,3.7-8.4,5.1c-3.1,1.4-6.7,2.1-10.6,2.1c-1.5,0-3.1-0.2-4.7-0.5
		c-1.7-0.3-3.2-0.9-4.5-1.7c-1.4-0.8-2.5-1.8-3.4-3.1c-0.9-1.3-1.3-2.9-1.3-4.7c0-1.2,0.3-2.2,1-3c0.7-0.8,1.6-1.2,2.8-1.2
		c0.9,0,1.6,0.3,2.1,0.8c0.6,0.6,0.8,1.3,0.8,2.1c0,0.8-0.3,1.4-0.8,1.9c-0.5,0.5-1.1,0.7-1.8,0.7c-0.4,0-0.7-0.1-1-0.2
		c0.3,2.6,1.5,4.5,3.6,5.8c2.1,1.3,4.8,2,7.9,2c3,0,5.7-0.7,8.2-2c2.5-1.3,4.8-3.1,7-5.3c2.2-2.2,4.2-4.7,6.1-7.5s3.8-5.7,5.7-8.7
		c1.9-3,3.8-6,5.7-9s3.9-5.7,6.1-8.1c2.1-2.5,4.4-4.5,6.8-6.3c2.4-1.7,5.1-2.9,8-3.4V6.9c-2.4,0-5-0.1-7.8-0.3
		c-2.8-0.2-5.4-0.3-7.8-0.3c-6.7,0-12.7,0.5-17.9,1.5c-5.2,1-9.6,2.3-13.2,4.1c-3.6,1.7-6.3,3.8-8.1,6.1c-1.8,2.3-2.8,4.9-2.8,7.6
		c0,3.2,1.1,5.6,3.2,7.2c2.2,1.6,5.2,2.4,9.2,2.4c2.8,0,5.3-0.4,7.6-1.2c2.3-0.8,4.3-1.9,5.9-3.3c1.7-1.4,2.9-2.9,3.9-4.7
		c0.9-1.8,1.4-3.6,1.4-5.4c0-0.5,0-1,0-1.5c0-0.5,0-1.1-0.1-1.6H285z"/>
	<path d="M331.8,36.3c-1.6,2.6-3.5,5.1-5.6,7.6c-2.1,2.5-4.4,4.8-6.9,6.8c-2.5,2-5.2,3.7-8.2,4.9s-6.1,1.9-9.5,1.9
		c-1.3,0-2.5-0.2-3.6-0.5c-1.1-0.3-2.1-0.8-2.9-1.4s-1.5-1.5-2-2.4c-0.5-1-0.8-2.1-0.8-3.5c0-1.4,0.5-2.6,1.4-3.8
		c0.9-1.1,2.1-1.7,3.7-1.7c0.8,0,1.5,0.2,2,0.6c0.5,0.4,0.8,1,0.8,1.8c0,0.7-0.2,1.4-0.6,1.9c-0.4,0.5-0.9,0.8-1.7,0.8
		c-0.6,0-1.1-0.2-1.4-0.5c-0.3-0.3-0.6-0.7-0.7-1.2c-0.6,0.3-1,0.8-1.2,1.4c-0.2,0.6-0.3,1.2-0.3,1.9c0,1.9,0.7,3.3,2.1,4.2
		c1.4,0.9,3,1.4,4.8,1.4c1.1,0,2.1-0.2,2.9-0.7c0.8-0.5,1.5-1,2.1-1.8c0.6-0.7,1-1.6,1.2-2.5c0.3-1,0.4-1.9,0.4-2.9
		c0-1-0.2-2.1-0.5-3.2c-0.3-1.1-0.7-2.2-1.2-3.2c-0.4-1.1-0.8-2.1-1.2-3.2c-0.4-1-0.6-2-0.6-2.9c0-1.2,0.2-2.2,0.7-3.2
		c0.5-0.9,1.1-1.7,2-2.4c0.8-0.6,1.8-1.1,2.8-1.5c1.1-0.3,2.2-0.5,3.4-0.5c2.1,0,3.9,0.5,5.2,1.4c1.3,0.9,2,2.2,2,3.7
		c0,1.4-0.5,2.4-1.6,3c-1,0.6-2.2,1-3.5,1c0.3-0.6,0.6-1.3,0.8-2.1c0.2-0.8,0.4-1.6,0.4-2.3c0-1.1-0.3-2-1-2.7s-1.6-1.1-2.8-1.1
		c-1.5,0-2.7,0.5-3.4,1.4c-0.7,0.9-1.1,2.1-1.1,3.4c0,1.2,0.2,2.3,0.6,3.4c0.4,1.1,0.9,2.1,1.4,3.2c0.5,1.1,0.9,2.2,1.3,3.3
		c0.4,1.1,0.6,2.4,0.6,3.8c0,1-0.2,2-0.7,2.9c-0.5,0.9-1.1,1.8-1.8,2.6c-0.7,0.8-1.6,1.4-2.5,2c-0.9,0.5-1.9,0.9-2.8,1l0.2,0.2
		c2.9-0.3,5.6-1.2,8.2-2.5c2.6-1.4,5.1-3,7.3-5c2.3-1.9,4.4-4.1,6.3-6.4c1.9-2.3,3.6-4.6,5-6.8L331.8,36.3z"/>
	<path d="M340.3,29.4c-2.1,2.8-4.1,5.5-6,8.1c-1.9,2.6-3.6,4.9-5.1,7c-1.5,2.1-2.7,4-3.6,5.6s-1.3,2.8-1.3,3.7
		c0,0.9,0.2,1.5,0.6,1.9c0.4,0.4,1,0.6,1.7,0.6c1,0,2.1-0.3,3.3-1c1.2-0.6,2.4-1.5,3.7-2.5c1.3-1,2.5-2.1,3.7-3.4
		c1.2-1.2,2.3-2.4,3.4-3.6s1.9-2.3,2.7-3.3c0.8-1,1.3-1.8,1.7-2.4l7-10.7h5.5c-2.9,3.9-5.3,7.3-7.3,10c-2,2.7-3.6,5.1-4.9,7
		c-1.3,1.9-2.1,3.5-2.7,4.7c-0.5,1.2-0.8,2.3-0.8,3.2c0,0.6,0.2,1.2,0.6,1.6c0.4,0.5,0.9,0.7,1.6,0.7c1.1,0,2.3-0.4,3.7-1.2
		c1.4-0.8,2.8-1.8,4.3-3c1.5-1.3,3-2.7,4.4-4.2c1.5-1.6,2.9-3.1,4.2-4.7c1.3-1.5,2.5-3,3.6-4.4c1.1-1.4,1.9-2.5,2.5-3.3l0.8,0.2
		c-0.6,0.9-1.5,2.1-2.6,3.5c-1.1,1.4-2.3,2.9-3.6,4.5s-2.7,3.2-4.2,4.8c-1.5,1.6-3,3.1-4.6,4.4c-1.6,1.3-3.1,2.3-4.6,3.2
		c-1.5,0.8-2.9,1.2-4.3,1.2c-1.5,0-2.7-0.4-3.6-1.2s-1.3-1.9-1.3-3.3c0-1.1,0.2-2.1,0.5-3.1c0.3-1,0.6-1.6,0.8-1.9l-0.2-0.2
		c-1.1,1.3-2.3,2.5-3.5,3.7c-1.2,1.2-2.5,2.2-3.7,3.1c-1.2,0.9-2.5,1.6-3.7,2.1c-1.3,0.5-2.5,0.8-3.7,0.8c-1.7,0-2.9-0.4-3.7-1.2
		s-1.1-1.7-1.1-2.8c0-1.3,0.4-2.8,1.1-4.3c0.7-1.5,1.7-3.3,3-5.2c1.3-1.9,2.8-4.1,4.6-6.5c1.8-2.4,3.7-5.1,5.9-8.2H340.3z"/>
	<path d="M374.7,29.4l-16.9,26.6c2.4-0.4,4.8-1.1,7.2-2.3c2.4-1.1,4.8-2.6,7.1-4.4c2.3-1.8,4.5-3.9,6.6-6.2c2.1-2.3,4.1-4.9,5.9-7.6
		l0.7,0.3c-1.7,2.5-3.5,4.9-5.6,7.3c-2.1,2.3-4.3,4.5-6.6,6.4c-2.3,1.9-4.9,3.5-7.6,4.8c-2.7,1.3-5.5,2.2-8.4,2.6
		c-1.8,2.8-3.8,5.6-6,8.4c-2.2,2.8-4.7,5.3-7.4,7.6c-2.7,2.2-5.6,4.1-8.8,5.4c-3.2,1.4-6.6,2.1-10.2,2.1c-1.7,0-3.4-0.2-5-0.6
		c-1.6-0.4-3-1-4.2-1.8c-1.2-0.8-2.2-1.8-3-3c-0.7-1.2-1.1-2.6-1.1-4.2c0-1.2,0.3-2.2,0.8-3.2c0.5-1,1.2-1.8,2-2.4
		c0.9-0.7,1.8-1.2,2.8-1.5c1-0.3,2.1-0.5,3.2-0.5c0.4,0,0.8,0,1.2,0.1c0.4,0.1,0.7,0.1,1,0.2v0.7H322c-2.2,0-3.8,0.7-4.9,2
		c-1.1,1.3-1.6,2.8-1.6,4.4c0,3.1,0.9,5.4,2.7,6.8c1.8,1.4,4.2,2,7.2,2c3.3,0,6.4-0.9,9.3-2.6c2.9-1.8,5.6-4,8.1-6.7
		c2.5-2.7,4.9-5.7,7-9c2.2-3.3,4.2-6.4,6.1-9.4l13.8-22.3H374.7z M379.7,14.6c0.7,0,1.4,0.3,1.8,0.8c0.5,0.5,0.7,1.1,0.7,1.9
		s-0.2,1.4-0.7,1.9c-0.5,0.5-1.1,0.8-1.8,0.8c-0.7,0-1.4-0.3-1.8-0.8c-0.5-0.5-0.7-1.1-0.7-1.9s0.2-1.4,0.7-1.9
		C378.3,14.8,378.9,14.6,379.7,14.6z"/>
	<path d="M393.6,29.4c-2.9,4.2-5.4,7.8-7.4,10.6c-2,2.9-3.7,5.3-4.9,7.2c-1.3,1.9-2.2,3.4-2.7,4.6c-0.6,1.1-0.8,2-0.8,2.7
		c0,1.4,0.6,2.1,1.7,2.1c1.1,0,2.3-0.4,3.7-1.2c1.4-0.8,2.9-1.8,4.4-3c1.5-1.2,3.1-2.6,4.6-4.2c1.5-1.5,3-3.1,4.4-4.6
		c1.4-1.5,2.6-3,3.6-4.4c1-1.4,1.8-2.6,2.3-3.5l0.6,0.4c-0.6,1.1-1.5,2.3-2.6,3.8c-1.1,1.5-2.3,3-3.7,4.6c-1.4,1.6-2.9,3.1-4.4,4.7
		c-1.5,1.5-3.1,2.9-4.7,4.2c-1.6,1.2-3.2,2.2-4.7,3c-1.5,0.7-2.9,1.1-4.2,1.1c-1.4,0-2.5-0.4-3.2-1.2c-0.7-0.8-1-1.7-1-2.6
		c0-1.1,0.3-2.3,0.8-3.6c0.5-1.3,1.3-2.8,2.4-4.6c1.1-1.8,2.6-4,4.4-6.6c1.8-2.6,3.9-5.8,6.4-9.6H393.6z M398.2,14.6
		c0.7,0,1.4,0.3,1.8,0.8c0.5,0.5,0.7,1.1,0.7,1.9s-0.2,1.4-0.7,1.9c-0.5,0.5-1.1,0.8-1.8,0.8c-0.7,0-1.4-0.3-1.8-0.8
		c-0.5-0.5-0.7-1.1-0.7-1.9s0.2-1.4,0.7-1.9C396.9,14.8,397.5,14.6,398.2,14.6z"/>
</g>
</svg>
